<svg width="12" height="13" viewBox="0 0 12 13" fill="none" xmlns="http://www.w3.org/2000/svg">
<path d="M1.85742 2.64844C3.00586 1.5 4.38216 0.925781 5.98633 0.925781C7.60872 0.925781 8.98503 1.5 10.1152 2.64844C11.2637 3.77865 11.8379 5.14583 11.8379 6.75C11.8379 8.35417 11.2637 9.73047 10.1152 10.8789C8.98503 12.0091 7.60872 12.5742 5.98633 12.5742C4.38216 12.5742 3.00586 12.0091 1.85742 10.8789C0.727214 9.73047 0.162109 8.35417 0.162109 6.75C0.162109 5.14583 0.727214 3.77865 1.85742 2.64844ZM2.70508 10.0586C3.61654 10.9701 4.71029 11.4258 5.98633 11.4258C7.2806 11.4258 8.38346 10.9701 9.29492 10.0586C10.2064 9.14714 10.6621 8.04427 10.6621 6.75C10.6621 5.45573 10.2064 4.35286 9.29492 3.44141C8.38346 2.52995 7.2806 2.07422 5.98633 2.07422C4.71029 2.07422 3.61654 2.52995 2.70508 3.44141C1.79362 4.35286 1.33789 5.45573 1.33789 6.75C1.33789 8.04427 1.79362 9.14714 2.70508 10.0586ZM6.28711 3.82422V6.88672L8.91211 8.44531L8.47461 9.18359L5.41211 7.32422V3.82422H6.28711Z" fill="#0095D9"/>
</svg>
