<svg width="18" height="18" viewBox="0 0 18 18" fill="none" xmlns="http://www.w3.org/2000/svg">
<path d="M16.1774 9.23393C16.1048 9.08618 16.1048 8.91733 16.1774 8.76607L16.8383 7.39066C17.205 6.6238 16.9144 5.71272 16.174 5.31522L14.8454 4.59762C14.7035 4.52023 14.6032 4.38304 14.5755 4.22122L14.316 2.71565C14.1707 1.87844 13.4095 1.3121 12.5792 1.4317L11.088 1.64979C10.9288 1.67442 10.7697 1.62165 10.652 1.50557L9.5691 0.443228C8.96708 -0.147743 8.02254 -0.147743 7.42053 0.443228L6.33759 1.50557C6.21995 1.62165 6.0608 1.67442 5.90165 1.64979L4.41045 1.43522C3.58008 1.31561 2.81892 1.87844 2.6736 2.71917L2.42103 4.22474C2.39335 4.38655 2.29302 4.52374 2.15116 4.60113L0.822579 5.31874C0.0821697 5.71624 -0.208458 6.63084 0.158287 7.39418L0.819119 8.76959C0.891776 8.91733 0.891776 9.08618 0.819119 9.23744L0.158287 10.6093C-0.208458 11.3762 0.0821697 12.2873 0.822579 12.6848L2.15116 13.4024C2.29302 13.4798 2.39335 13.617 2.42103 13.7788L2.68052 15.2843C2.812 16.0477 3.45553 16.5824 4.19594 16.5824C4.2686 16.5824 4.34125 16.5789 4.41737 16.5648L5.90857 16.3502C6.06772 16.3256 6.22687 16.3783 6.34451 16.4944L7.42744 17.5568C7.72845 17.8523 8.11596 18 8.5 18C8.8875 18 9.27155 17.8523 9.57256 17.5568L10.6555 16.4944C10.7731 16.3783 10.9323 16.3256 11.0914 16.3502L12.5826 16.5648C13.413 16.6844 14.1742 16.1216 14.3195 15.2808L14.579 13.7753C14.6066 13.6134 14.707 13.4763 14.8488 13.3989L16.1774 12.6813C16.9178 12.2838 17.2085 11.3692 16.8417 10.6058L16.1774 9.23393ZM6.45522 4.32675C7.48972 4.32675 8.32701 5.18155 8.32701 6.22982C8.32701 7.27809 7.48626 8.13289 6.45522 8.13289C5.42419 8.13289 4.58344 7.27809 4.58344 6.22982C4.58344 5.18155 5.42073 4.32675 6.45522 4.32675ZM5.48647 12.7973C5.38613 12.8994 5.25465 12.9486 5.12664 12.9486C4.99863 12.9486 4.86369 12.8994 4.76682 12.7973C4.56614 12.5933 4.56614 12.2662 4.76682 12.0621L11.5101 5.20618C11.7107 5.00215 12.0325 5.00215 12.2332 5.20618C12.4339 5.4102 12.4339 5.73735 12.2332 5.94137L5.48647 12.7973ZM10.5413 13.6768C9.50682 13.6768 8.66953 12.822 8.66953 11.7737C8.66953 10.7254 9.51028 9.87063 10.5413 9.87063C11.5758 9.87063 12.4131 10.7254 12.4131 11.7737C12.4131 12.822 11.5758 13.6768 10.5413 13.6768Z" fill="#3C3C46"/>
<path d="M10.5413 10.9048C10.0708 10.9048 9.69019 11.2918 9.69019 11.7702C9.69019 12.2486 10.0708 12.6355 10.5413 12.6355C11.0119 12.6355 11.3924 12.2486 11.3924 11.7702C11.3924 11.2918 11.0119 10.9048 10.5413 10.9048Z" fill="#3C3C46"/>
<path d="M6.45522 5.36447C5.98468 5.36447 5.6041 5.75142 5.6041 6.22982C5.6041 6.70823 5.98468 7.09517 6.45522 7.09517C6.92577 7.09517 7.30635 6.70823 7.30635 6.22982C7.30635 5.75493 6.92577 5.36447 6.45522 5.36447Z" fill="#3C3C46"/>
</svg>
