<svg width="15" height="10" viewBox="0 0 15 10" fill="none" xmlns="http://www.w3.org/2000/svg">
<path d="M3.04688 1.40625C4.38021 0.46875 5.86979 0 7.51562 0C9.16146 0 10.6406 0.46875 11.9531 1.40625C13.2865 2.32292 14.2448 3.52083 14.8281 5C14.2448 6.47917 13.2865 7.6875 11.9531 8.625C10.6406 9.54167 9.16146 10 7.51562 10C5.86979 10 4.38021 9.54167 3.04688 8.625C1.71354 7.6875 0.755208 6.47917 0.171875 5C0.755208 3.52083 1.71354 2.32292 3.04688 1.40625ZM5.14062 7.375C5.80729 8.02083 6.59896 8.34375 7.51562 8.34375C8.43229 8.34375 9.21354 8.02083 9.85938 7.375C10.5052 6.70833 10.8281 5.91667 10.8281 5C10.8281 4.08333 10.5052 3.30208 9.85938 2.65625C9.21354 1.98958 8.43229 1.65625 7.51562 1.65625C6.59896 1.65625 5.80729 1.98958 5.14062 2.65625C4.49479 3.30208 4.17188 4.08333 4.17188 5C4.17188 5.91667 4.49479 6.70833 5.14062 7.375ZM6.07812 3.59375C6.47396 3.19792 6.94271 3 7.48438 3C8.04688 3 8.52604 3.19792 8.92188 3.59375C9.31771 3.96875 9.51562 4.4375 9.51562 5C9.51562 5.5625 9.31771 6.04167 8.92188 6.4375C8.52604 6.8125 8.04688 7 7.48438 7C6.94271 7 6.47396 6.8125 6.07812 6.4375C5.70312 6.04167 5.51562 5.5625 5.51562 5C5.51562 4.4375 5.70312 3.96875 6.07812 3.59375Z" fill="#0095D9"/>
</svg>
