<svg width="18" height="18" viewBox="0 0 18 18" fill="none" xmlns="http://www.w3.org/2000/svg">
<path d="M16.5188 4.77373H12.7812C13.0719 4.37914 13.2437 3.89372 13.2437 3.36759C13.2437 2.06166 12.1844 1 10.8813 1C10.1125 1 9.43125 1.36954 9 1.93952C8.56875 1.36954 7.88438 1 7.11875 1C5.81563 1 4.75625 2.06166 4.75625 3.36759C4.75625 3.89372 4.92812 4.37914 5.21875 4.77373H1.48125C1.21562 4.77373 1 4.98982 1 5.25602V7.56097H8.51875V4.77373H9.47812V7.56097H17V5.25602C17 4.98982 16.7844 4.77373 16.5188 4.77373ZM7.11875 4.77373C6.34688 4.77373 5.71562 4.14426 5.71562 3.36759C5.71562 2.59405 6.34375 1.96144 7.11875 1.96144C7.89063 1.96144 8.52188 2.59092 8.52188 3.36759V4.77373H7.11875ZM10.8813 4.77373H9.47812V3.37072C9.47812 2.59718 10.1062 1.96457 10.8813 1.96457C11.6562 1.96457 12.2844 2.59405 12.2844 3.37072C12.2844 4.14426 11.6531 4.77373 10.8813 4.77373Z" fill="#3C3C46"/>
<path d="M2.15625 8.52241V16.5177C2.15625 16.7839 2.37188 17 2.6375 17H8.52188V8.52241H2.15625Z" fill="#3C3C46"/>
<path d="M9.48125 8.52241V17H15.3656C15.6312 17 15.8469 16.7839 15.8469 16.5177V8.52241H9.48125Z" fill="#3C3C46"/>
</svg>
