<svg width="13" height="14" viewBox="0 0 13 14" fill="none" xmlns="http://www.w3.org/2000/svg">
<path d="M12.8206 1.95817C12.7953 1.77516 12.6621 1.62876 12.4781 1.57996L6.6303 0.0183007C6.54785 -0.00610022 6.45905 -0.00610022 6.3766 0.0183007L0.522424 1.57996C0.33849 1.62876 0.205296 1.77516 0.179926 1.95817C0.141871 2.19608 -0.631921 7.74118 1.3533 10.4985C3.33852 13.2558 6.26243 13.9573 6.38294 13.9878C6.421 13.9939 6.45905 14 6.49711 14C6.53516 14 6.57322 13.9939 6.61127 13.9878C6.73178 13.9573 9.66204 13.2558 11.6409 10.4985C13.6325 7.74118 12.8587 2.19608 12.8206 1.95817ZM10.2709 5.19739L6.28146 9.03442C6.18632 9.12593 6.06581 9.16863 5.94531 9.16863C5.8248 9.16863 5.70429 9.12593 5.60915 9.03442L3.1419 6.66144C3.0531 6.57604 3.00236 6.46013 3.00236 6.33813C3.00236 6.21612 3.0531 6.10022 3.1419 6.01481L3.63027 5.5451C3.81421 5.36819 4.11865 5.36819 4.30259 5.5451L5.94531 7.12505L9.11024 4.08105C9.19904 3.99564 9.31954 3.94684 9.44639 3.94684C9.57325 3.94684 9.69375 3.99564 9.78255 4.08105L10.2709 4.55076C10.4612 4.72767 10.4612 5.02048 10.2709 5.19739Z" fill="#3C3C46"/>
</svg>
