<svg width="18" height="18" viewBox="0 0 18 18" fill="none" xmlns="http://www.w3.org/2000/svg">
<path d="M16.3741 6.14794C13.9911 2.19068 10.4334 4.93032 10.4334 4.93032C10.1985 5.09944 9.76218 5.26855 9.49368 5.26855H8.52036C8.21829 5.26855 7.81554 5.13326 7.5806 4.93032C7.5806 4.93032 3.98937 2.19068 1.6064 6.11412C-0.776565 10.0376 0.196759 14.3331 0.196759 14.3331C0.364573 15.3816 0.901579 16.0918 1.97559 15.9904C3.01604 15.8889 5.26476 13.1493 5.26476 13.1493C5.46613 12.9125 5.83533 12.7434 6.13739 12.7434H11.8766C12.1787 12.7434 12.5479 12.9125 12.7493 13.1493C12.7493 13.1493 14.998 15.8889 16.0384 15.9904C17.0789 16.0918 17.6495 15.3816 17.8173 14.3331C17.8173 14.3669 18.757 10.0714 16.3741 6.14794ZM6.84221 9.36111H5.60039V10.5449C5.60039 10.5449 5.33188 10.7478 4.92913 10.7478C4.52637 10.7478 4.35856 10.5449 4.35856 10.5449V9.36111H3.18386C3.18386 9.36111 3.0496 9.22582 3.01604 8.81994C2.94892 8.41407 3.15029 8.07584 3.15029 8.07584H4.39212V6.85822C4.39212 6.85822 4.66062 6.72293 4.99625 6.72293C5.36544 6.72293 5.63395 6.85822 5.63395 6.85822V8.07584H6.80865C6.80865 8.07584 7.01003 8.34642 7.04359 8.65083C7.04359 8.98906 6.84221 9.36111 6.84221 9.36111ZM12.4808 10.714C11.9438 10.714 11.5075 10.2743 11.5075 9.73316C11.5075 9.19199 11.9438 8.7523 12.4808 8.7523C13.0178 8.7523 13.4541 9.19199 13.4541 9.73316C13.4541 10.2743 13.0178 10.714 12.4808 10.714ZM12.4808 8.0082C11.9438 8.0082 11.5075 7.5685 11.5075 7.02734C11.5075 6.48617 11.9438 6.04648 12.4808 6.04648C13.0178 6.04648 13.4541 6.48617 13.4541 7.02734C13.4541 7.5685 13.0178 8.0082 12.4808 8.0082ZM14.9309 9.46258C14.3939 9.46258 13.9575 9.02288 13.9575 8.48171C13.9575 7.94055 14.3939 7.50085 14.9309 7.50085C15.4679 7.50085 15.9042 7.94055 15.9042 8.48171C15.9042 9.02288 15.4679 9.46258 14.9309 9.46258Z" fill="#3C3C46"/>
</svg>
