<svg width="18" height="18" viewBox="0 0 18 18" fill="none" xmlns="http://www.w3.org/2000/svg">
<path d="M10.6664 2.08084C9.54844 1.38398 8.22305 1 6.85547 1C3.13242 1 0 3.8052 0 7.3997C0 8.65831 0.386719 9.86715 1.12148 10.9089L0.0949219 14.1692C-0.0140625 14.514 0.242578 14.866 0.597656 14.866C0.678516 14.866 0.759375 14.8482 0.836719 14.8091L3.95859 13.2021C4.08516 13.2554 4.21172 13.3088 4.3418 13.355C3.62109 12.2137 3.23438 10.9053 3.23438 9.53294C3.23438 5.44779 6.63398 2.30838 10.6664 2.08084Z" fill="#3C3C46"/>
<path d="M16.8785 13.0421C17.6133 12.0004 18 10.7915 18 9.53294C18 5.93844 14.8676 3.13323 11.1445 3.13323C7.42148 3.13323 4.28906 5.93844 4.28906 9.53294C4.28906 13.1274 7.42148 15.9326 11.1445 15.9326C12.143 15.9326 13.1379 15.7264 14.0414 15.3353L17.1633 16.9424C17.3531 17.0384 17.5816 17.0135 17.7434 16.8748C17.9051 16.7362 17.9684 16.5122 17.9051 16.306L16.8785 13.0421ZM9 10.0662C8.7082 10.0662 8.47266 9.82804 8.47266 9.53294C8.47266 9.23784 8.7082 8.99963 9 8.99963C9.2918 8.99963 9.52734 9.23784 9.52734 9.53294C9.52734 9.82804 9.2918 10.0662 9 10.0662ZM11.1094 10.0662C10.8176 10.0662 10.582 9.82804 10.582 9.53294C10.582 9.23784 10.8176 8.99963 11.1094 8.99963C11.4012 8.99963 11.6367 9.23784 11.6367 9.53294C11.6367 9.82804 11.4012 10.0662 11.1094 10.0662ZM13.2188 10.0662C12.927 10.0662 12.6914 9.82804 12.6914 9.53294C12.6914 9.23784 12.927 8.99963 13.2188 8.99963C13.5105 8.99963 13.7461 9.23784 13.7461 9.53294C13.7461 9.82804 13.5105 10.0662 13.2188 10.0662Z" fill="#3C3C46"/>
</svg>
