<svg width="20" height="14" viewBox="0 0 20 14" fill="none" xmlns="http://www.w3.org/2000/svg">
<path fill-rule="evenodd" clip-rule="evenodd" d="M1.4202 0H12.9412C13.2646 0 13.5271 0.260292 13.5271 0.581009V1.74768H16.8784C17.244 1.74768 17.5674 1.98938 17.6705 2.33798L18.6782 5.83798C18.7954 5.85657 18.9079 5.917 18.9923 6.00066L19.8219 6.82337C19.9344 6.93493 19.9953 7.07902 19.9953 7.23705V11.0764C19.9953 11.3971 19.7328 11.6574 19.4094 11.6574H17.6471C17.6471 12.9449 16.5925 13.9907 15.2941 13.9907C13.9958 13.9907 12.9412 12.9449 12.9412 11.6574H7.05882C7.05882 12.9449 6.00422 13.9907 4.70588 13.9907C3.40755 13.9907 2.35294 12.9449 2.35294 11.6574H0.585892C0.262479 11.6667 0 11.4064 0 11.081V1.40837C0 1.25498 0.0609327 1.10624 0.173424 0.994688L1.00305 0.171979C1.11554 0.060425 1.26553 0 1.4202 0ZM17.4549 5.83333L16.6159 2.91899H13.5318V5.25232C13.5318 5.57304 13.7942 5.83798 14.1176 5.83798L17.4549 5.83333ZM15.2941 10.5C15.9456 10.5 16.4706 11.0206 16.4706 11.6667C16.4706 12.3127 15.9456 12.8333 15.2941 12.8333C14.6426 12.8333 14.1176 12.3127 14.1176 11.6667C14.1176 11.0206 14.6426 10.5 15.2941 10.5ZM3.52941 11.6667C3.52941 12.3127 4.05437 12.8333 4.70588 12.8333C5.35739 12.8333 5.88235 12.3127 5.88235 11.6667C5.88235 11.0206 5.35739 10.5 4.70588 10.5C4.05437 10.5 3.52941 11.0206 3.52941 11.6667Z" fill="#3C3C46"/>
</svg>
