<svg width="17" height="10" viewBox="0 0 17 10" fill="none" xmlns="http://www.w3.org/2000/svg">
<g clip-path="url(#clip0_841_99970)">
<path d="M16.9859 5.00864C14.9743 2.69909 12.1946 0.0444336 8.50022 0.0444336C7.00823 0.0444336 5.64059 0.464754 4.19745 1.36291C2.98077 2.12391 1.73302 3.19463 0.0190136 4.95555L-0.0253906 4.99979L0.272117 5.30508C2.71879 7.80045 4.83243 9.95515 8.50022 9.95515C10.121 9.95515 11.6929 9.42864 13.3048 8.34466C14.6768 7.41995 15.8447 6.24748 16.7816 5.30065L17.0258 5.05731L16.9859 5.00864ZM8.50022 8.53933C6.54199 8.53933 4.94788 6.95096 4.94788 4.99979C4.94788 3.04862 6.54199 1.46025 8.50022 1.46025C10.4584 1.46025 12.0526 3.04862 12.0526 4.99979C12.0526 6.95096 10.4584 8.53933 8.50022 8.53933Z" fill="#9499A0"/>
<path d="M8.25188 3.70777C8.25188 3.40248 8.34069 3.1149 8.4961 2.87598C7.31939 2.87598 6.36914 3.83165 6.36914 5.00855C6.36914 6.18545 7.32383 7.1367 8.4961 7.1367C9.66837 7.1367 10.6275 6.18545 10.6275 5.00855C10.3877 5.1634 10.0991 5.25189 9.7927 5.25189C8.94458 5.24747 8.25188 4.55726 8.25188 3.70777Z" fill="#9499A0"/>
</g>
<defs>
<clipPath id="clip0_841_99970">
<rect width="17" height="10" fill="white"/>
</clipPath>
</defs>
</svg>
