<svg width="15" height="15" viewBox="0 0 15 15" fill="none" xmlns="http://www.w3.org/2000/svg">
<path d="M10.6445 9.17969L14.7852 13.3203L13.5352 14.5703L9.39453 10.4297V9.76562L9.16016 9.53125C8.14453 10.3906 6.97266 10.8203 5.64453 10.8203C4.13411 10.8203 2.84505 10.2995 1.77734 9.25781C0.735677 8.1901 0.214844 6.91406 0.214844 5.42969C0.214844 3.91927 0.735677 2.64323 1.77734 1.60156C2.84505 0.533854 4.12109 0 5.60547 0C7.11589 0 8.39193 0.533854 9.43359 1.60156C10.5013 2.64323 11.0352 3.91927 11.0352 5.42969C11.0352 6.75781 10.6055 7.92969 9.74609 8.94531L9.98047 9.17969H10.6445ZM2.98828 8.08594C3.71745 8.8151 4.60286 9.17969 5.64453 9.17969C6.6862 9.17969 7.57161 8.8151 8.30078 8.08594C9.02995 7.35677 9.39453 6.47135 9.39453 5.42969C9.39453 4.38802 9.02995 3.5026 8.30078 2.77344C7.57161 2.04427 6.6862 1.67969 5.64453 1.67969C4.60286 1.67969 3.71745 2.04427 2.98828 2.77344C2.25911 3.5026 1.89453 4.38802 1.89453 5.42969C1.89453 6.47135 2.25911 7.35677 2.98828 8.08594ZM7.71484 5.82031H6.03516V7.5H5.21484V5.82031H3.53516V5H5.21484V3.32031H6.03516V5H7.71484V5.82031Z" fill="white"/>
</svg>
