<svg width="35" height="35" viewBox="0 0 35 35" fill="none" xmlns="http://www.w3.org/2000/svg">
<path d="M32.0081 20.1589H31.5423V15.9814C31.5423 15.3215 31.2157 14.7342 30.7137 14.377V13.8079C30.7137 12.9846 30.0423 12.3125 29.2198 12.3125H28.875L30.1996 10.3691C30.6411 9.71525 30.4718 8.82528 29.8246 8.38331L20.8367 2.25033C20.5222 2.03238 20.1411 1.95367 19.7661 2.02632C19.3911 2.09898 19.0645 2.31088 18.8528 2.6257L11.0927 14.0198H8.93952L9.45968 8.74657C9.46573 8.68603 9.50202 8.63759 9.55645 8.61338C10.2278 8.3591 10.7056 7.82027 11.0927 7.21484C11.123 7.1664 11.2802 7.20878 11.3407 7.21484L15.7623 7.54782C16.0042 7.57204 16.4241 7.40884 16.4483 7.16667C16.4725 6.9245 16.4881 6.69417 16.2462 6.66995L11.0927 6.30064C10.6996 6.26432 10.4531 6.34302 10.2414 6.66995C9.9571 7.11192 9.74395 7.60231 9.24798 7.78999C8.87903 7.92924 8.61895 8.26223 8.58266 8.66181L8.05645 14.0259H7.49395L8.31048 5.671C8.34073 5.36828 8.60685 5.15033 8.90927 5.1806L17.095 5.81025C17.3369 5.83446 17.5547 5.65889 17.5788 5.41672C17.603 5.17455 17.4276 4.95659 17.1857 4.93238L8.99395 4.30273C8.20766 4.22403 7.50605 4.79918 7.43347 5.58624L6.76814 12.3125H5.6371C4.81452 12.3125 4.14315 12.9846 4.14315 13.8079V14.1954C3.47177 14.5042 3 15.1883 3 15.9814V31.0384C3 32.1221 3.87702 33 4.95968 33H29.5827C30.6653 33 31.5423 32.1221 31.5423 31.0384V26.861H32.0081C32.5524 26.861 33 26.4129 33 25.8681V21.1518C33 20.6069 32.5524 20.1589 32.0081 20.1589ZM29.2198 13.1965C29.5585 13.1965 29.8306 13.4689 29.8306 13.8079V14.032C29.752 14.0198 29.6673 14.0138 29.5827 14.0138H27.7077L28.2702 13.1904H29.2198V13.1965ZM19.5786 3.12215C19.6633 3.00106 19.7843 2.92236 19.9294 2.89209C19.9657 2.88603 19.996 2.87998 20.0323 2.87998C20.1411 2.87998 20.25 2.91025 20.3407 2.97685L29.3226 9.10377C29.5706 9.27329 29.6371 9.61233 29.4677 9.86661L26.6431 14.0138H25.9657L27.3508 11.9796C27.5746 11.6526 27.5927 11.2288 27.3992 10.8837C27.1391 10.4236 27.0363 9.88477 27.1028 9.35805C27.1512 8.97058 26.9819 8.58916 26.6552 8.36515L21.998 5.18666C21.6714 4.96265 21.254 4.94449 20.9153 5.13217C20.4556 5.38645 19.9113 5.48937 19.3911 5.41672C19.004 5.36223 18.6109 5.5378 18.3931 5.86474L12.8468 14.0138H12.1694L19.5786 3.12215ZM19.7722 10.6234C17.8488 10.6234 16.2702 12.1249 16.1431 14.0138H13.9052L19.1129 6.36724C19.1431 6.32486 19.1915 6.30064 19.2399 6.30064C19.246 6.30064 19.252 6.30064 19.2581 6.30064C19.9657 6.39751 20.7036 6.26432 21.3327 5.91922C21.381 5.88895 21.4476 5.89501 21.496 5.93133L26.1532 9.10983C26.2016 9.14615 26.2258 9.20064 26.2198 9.25513C26.129 9.96348 26.2681 10.7021 26.619 11.3257C26.6492 11.3741 26.6431 11.4407 26.6129 11.4892L24.8952 14.0198H23.4012C23.2742 12.1249 21.6956 10.6234 19.7722 10.6234ZM22.5181 14.0198H17.0323C17.1593 12.6153 18.3387 11.5134 19.7722 11.5134C21.2056 11.5073 22.3911 12.6153 22.5181 14.0198ZM5.02621 13.8079C5.02621 13.4689 5.29839 13.1965 5.6371 13.1965H6.67742L6.59879 14.0198H5.02621V13.8079ZM3.88306 15.9814C3.88306 15.3881 4.36694 14.9038 4.95968 14.9038H29.5827C30.1754 14.9038 30.6593 15.3881 30.6593 15.9814V17.2044H3.88306V15.9814ZM30.6593 31.0384C30.6593 31.6317 30.1754 32.1161 29.5827 32.1161H4.95968C4.36694 32.1161 3.88306 31.6317 3.88306 31.0384V29.8155H10.398C10.6399 29.8155 10.8395 29.6157 10.8395 29.3735C10.8395 29.1313 10.6399 28.9315 10.398 28.9315H3.88306V18.0944H30.6593V20.1649H26.4677C25.1431 20.1649 24 20.9338 23.4556 22.0539C23.4556 22.0599 23.4496 22.0599 23.4496 22.066C23.4435 22.0781 23.4435 22.0841 23.4375 22.0962C23.371 22.2355 23.3165 22.3747 23.2681 22.5261C23.1714 22.8409 23.1169 23.1739 23.1169 23.519C23.1169 25.3656 24.6169 26.867 26.4617 26.867H30.6593V28.9376H9.08468C8.84274 28.9376 8.64315 29.1374 8.64315 29.3795C8.64315 29.6217 8.84274 29.8215 9.08468 29.8215H30.6593V31.0384ZM32.1169 25.8681C32.1169 25.9286 32.0685 25.977 32.0081 25.977H26.4677C25.5363 25.977 24.7198 25.4564 24.3024 24.6875C24.2843 24.6512 24.2661 24.6148 24.248 24.5785C24.2117 24.5059 24.1814 24.4332 24.1573 24.3545C24.0605 24.0881 24.006 23.8036 24.006 23.5069C24.006 23.2102 24.0605 22.9257 24.1573 22.6593C24.1875 22.5866 24.2177 22.5079 24.248 22.4353C24.2661 22.399 24.2843 22.3626 24.3024 22.3263C24.7198 21.5574 25.5363 21.0368 26.4677 21.0368H32.0081C32.0685 21.0368 32.1169 21.0852 32.1169 21.1457V25.8681Z" fill="#0095D9"/>
<path d="M26.5706 21.7148C25.5847 21.7148 24.7802 22.52 24.7802 23.5069C24.7802 24.4937 25.5847 25.299 26.5706 25.299C27.5565 25.299 28.3609 24.4937 28.3609 23.5069C28.3609 22.52 27.5565 21.7148 26.5706 21.7148ZM26.5706 24.415C26.0685 24.415 25.6633 24.0094 25.6633 23.5069C25.6633 23.0044 26.0685 22.5988 26.5706 22.5988C27.0726 22.5988 27.4778 23.0044 27.4778 23.5069C27.4778 24.0094 27.0665 24.415 26.5706 24.415Z" fill="#0095D9"/>
</svg>
