<?xml version="1.0" standalone="no"?>
<!DOCTYPE svg PUBLIC "-//W3C//DTD SVG 20010904//EN"
 "http://www.w3.org/TR/2001/REC-SVG-20010904/DTD/svg10.dtd">
<svg version="1.0" xmlns="http://www.w3.org/2000/svg"
 width="144.000000pt" height="144.000000pt" viewBox="0 0 144.000000 144.000000"
 preserveAspectRatio="xMidYMid meet">
<metadata>
Created by potrace 1.14, written by Peter Selinger 2001-2017
</metadata>
<g transform="translate(0.000000,144.000000) scale(0.100000,-0.100000)"
fill="#000000" stroke="none">
<path d="M681 1396 c-9 -11 -9 -16 1 -22 7 -4 10 -4 6 1 -4 4 -3 14 3 22 6 7
9 13 6 13 -2 0 -10 -6 -16 -14z"/>
<path d="M736 1402 c-3 -4 4 -9 15 -9 23 -2 25 3 4 10 -8 4 -16 3 -19 -1z"/>
<path d="M706 1383 c-6 -14 -5 -15 5 -6 7 7 10 15 7 18 -3 3 -9 -2 -12 -12z"/>
<path d="M863 1387 c3 -7 47 -85 97 -173 85 -145 109 -188 161 -281 25 -44 46
-120 51 -180 1 -17 5 -30 9 -27 4 2 42 65 84 139 52 91 74 141 70 154 -13 42
-91 149 -148 204 -86 83 -198 146 -301 171 -22 5 -27 4 -23 -7z"/>
<path d="M511 1368 c-1 -10 3 -18 8 -18 5 0 15 8 22 18 13 15 12 16 -3 4 -13
-10 -17 -10 -21 0 -4 8 -6 7 -6 -4z"/>
<path d="M615 1369 c-4 -6 -5 -12 -2 -15 2 -3 7 2 10 11 7 17 1 20 -8 4z"/>
<path d="M733 1365 c0 -8 4 -12 9 -9 5 3 6 10 3 15 -9 13 -12 11 -12 -6z"/>
<path d="M635 1361 c-3 -5 -2 -12 3 -15 5 -3 9 1 9 9 0 17 -3 19 -12 6z"/>
<path d="M785 1359 c-4 -6 -5 -12 -2 -15 2 -3 7 2 10 11 7 17 1 20 -8 4z"/>
<path d="M749 1343 c-13 -16 -12 -17 4 -4 9 7 17 15 17 17 0 8 -8 3 -21 -13z"/>
<path d="M668 1343 c6 -3 10 -9 6 -14 -8 -14 2 -11 14 4 8 10 6 13 -11 14 -12
0 -16 -1 -9 -4z"/>
<path d="M455 1329 c-4 -6 -5 -12 -2 -15 2 -3 7 2 10 11 7 17 1 20 -8 4z"/>
<path d="M618 1328 c8 -9 11 -21 8 -26 -3 -5 1 -9 8 -9 9 0 12 7 8 16 -5 14
-4 14 14 1 18 -14 18 -14 5 3 -8 9 -16 15 -19 12 -3 -3 -12 1 -21 8 -14 10
-14 10 -3 -5z"/>
<path d="M481 1316 c-9 -11 -9 -16 1 -22 7 -4 10 -4 6 1 -4 4 -3 14 3 22 6 7
9 13 6 13 -2 0 -10 -6 -16 -14z"/>
<path d="M760 1325 c0 -2 6 -8 13 -14 10 -8 14 -7 14 2 0 8 -6 14 -14 14 -7 0
-13 -1 -13 -2z"/>
<path d="M507 1307 c-3 -7 3 -13 14 -13 13 0 15 3 7 13 -6 7 -12 13 -13 13 -2
0 -5 -6 -8 -13z"/>
<path d="M595 1311 c-3 -5 -2 -12 3 -15 5 -3 9 1 9 9 0 17 -3 19 -12 6z"/>
<path d="M376 1287 c3 -10 9 -15 12 -12 3 3 0 11 -7 18 -10 9 -11 8 -5 -6z"/>
<path d="M453 1287 c0 -8 6 -14 14 -14 9 0 10 4 2 14 -6 7 -12 13 -14 13 -1 0
-2 -6 -2 -13z"/>
<path d="M554 1286 c1 -8 5 -18 8 -22 4 -3 5 1 4 10 -1 8 -5 18 -8 22 -4 3 -5
-1 -4 -10z"/>
<path d="M286 1281 c-3 -5 1 -11 9 -14 9 -4 12 -1 8 9 -6 16 -10 17 -17 5z"/>
<path d="M793 1270 c1 -21 10 -18 13 5 1 8 -2 15 -6 15 -5 0 -8 -9 -7 -20z"/>
<path d="M350 1276 c0 -2 8 -10 18 -17 15 -13 16 -12 3 4 -13 16 -21 21 -21
13z"/>
<path d="M760 1271 c0 -6 4 -13 10 -16 6 -3 7 1 4 9 -7 18 -14 21 -14 7z"/>
<path d="M400 1260 c-9 -6 -10 -10 -3 -10 6 0 15 5 18 10 8 12 4 12 -15 0z"/>
<path d="M480 1255 c-7 -8 -9 -15 -5 -15 4 0 1 -8 -6 -17 -13 -16 -12 -17 4
-4 9 8 15 16 12 19 -3 3 0 11 6 19 6 7 9 13 6 13 -2 0 -10 -7 -17 -15z"/>
<path d="M588 1263 c6 -3 10 -9 6 -14 -8 -14 2 -11 14 4 8 10 6 13 -11 14 -12
0 -16 -1 -9 -4z"/>
<path d="M333 1243 c1 -17 4 -19 14 -11 15 12 18 22 4 14 -5 -4 -11 0 -14 6
-3 7 -4 3 -4 -9z"/>
<path d="M451 1244 c0 -11 3 -14 6 -6 3 7 2 16 -1 19 -3 4 -6 -2 -5 -13z"/>
<path d="M286 1238 c3 -5 10 -6 15 -3 13 9 11 12 -6 12 -8 0 -12 -4 -9 -9z"/>
<path d="M501 1234 c0 -11 3 -14 6 -6 3 7 2 16 -1 19 -3 4 -6 -2 -5 -13z"/>
<path d="M560 1246 c0 -2 8 -10 18 -17 15 -13 16 -12 3 4 -13 16 -21 21 -21
13z"/>
<path d="M736 1238 c3 -5 10 -6 15 -3 13 9 11 12 -6 12 -8 0 -12 -4 -9 -9z"/>
<path d="M830 1244 c0 -2 9 -8 20 -14 15 -8 18 -8 14 3 -4 11 -34 21 -34 11z"/>
<path d="M229 1223 c-13 -16 -12 -17 4 -4 16 13 21 21 13 21 -2 0 -10 -8 -17
-17z"/>
<path d="M546 1222 c-3 -5 1 -9 9 -9 8 0 12 4 9 9 -3 4 -7 8 -9 8 -2 0 -6 -4
-9 -8z"/>
<path d="M620 1225 c0 -2 6 -8 13 -14 10 -8 14 -7 14 2 0 8 -6 14 -14 14 -7 0
-13 -1 -13 -2z"/>
<path d="M668 1223 c7 -3 16 -2 19 1 4 3 -2 6 -13 5 -11 0 -14 -3 -6 -6z"/>
<path d="M828 1218 c8 -9 11 -22 8 -27 -4 -5 -3 -12 2 -15 16 -10 10 33 -6 46
-15 12 -16 11 -4 -4z"/>
<path d="M373 1205 c0 -8 4 -12 9 -9 5 3 6 10 3 15 -9 13 -12 11 -12 -6z"/>
<path d="M895 1169 c-4 -6 -5 -12 -2 -15 2 -3 7 2 10 11 7 17 1 20 -8 4z"/>
<path d="M151 1128 c-1 -10 -7 -17 -13 -15 -7 1 -13 -5 -13 -14 0 -9 -8 -24
-18 -33 -16 -16 -19 -24 -16 -43 0 -3 -6 -10 -15 -15 -9 -5 -14 -13 -11 -18 3
-5 -1 -22 -9 -38 -8 -16 -12 -32 -9 -36 4 -3 1 -6 -5 -6 -6 0 -10 -9 -9 -19 0
-11 5 -17 10 -14 5 3 7 0 5 -8 -3 -8 -11 -13 -17 -11 -7 1 -10 -2 -7 -7 4 -5
2 -12 -3 -15 -11 -7 -9 -56 3 -75 7 -11 5 -13 -6 -9 -8 4 -15 1 -15 -7 0 -8 7
-11 16 -7 13 5 14 3 4 -10 -7 -8 -10 -18 -6 -21 3 -4 1 -7 -6 -7 -7 0 -3 -9
10 -19 22 -18 22 -20 7 -26 -20 -8 -25 -27 -7 -23 6 2 14 -3 16 -10 3 -8 -2
-10 -14 -6 -13 4 -14 3 -5 -4 8 -5 14 -13 14 -18 0 -5 4 -8 9 -6 14 3 11 -16
-3 -21 -7 -2 -10 -8 -6 -11 3 -4 16 2 27 13 17 17 18 21 5 21 -8 0 -12 5 -9
10 4 6 10 8 15 5 5 -3 12 0 16 6 5 8 3 9 -6 4 -8 -5 -11 -3 -9 4 3 7 7 11 10
9 14 -7 39 26 33 44 -4 12 -1 18 8 16 7 -2 13 6 13 17 1 11 7 19 14 17 7 -1 9
2 6 8 -4 6 1 18 11 26 18 13 18 14 -1 7 -18 -6 -18 -5 -6 10 7 9 17 15 21 12
16 -10 20 13 5 25 -8 7 -15 17 -15 22 0 6 7 5 15 -2 13 -11 18 -10 30 6 15 20
18 31 16 52 -1 7 3 11 9 10 6 -2 23 17 37 41 24 40 25 43 6 33 -20 -11 -33 -7
-33 10 0 5 4 7 9 3 5 -3 16 2 24 10 12 11 17 12 20 2 4 -9 8 -9 18 1 12 11 12
13 0 10 -7 -2 -15 2 -18 9 -3 8 3 11 17 8 11 -2 18 0 15 6 -4 5 4 13 17 18 13
6 17 10 10 10 -7 1 -10 6 -7 11 4 6 11 7 17 4 7 -5 8 -2 4 5 -5 8 -3 11 6 9 7
-2 27 7 43 20 l29 23 -26 -5 c-15 -2 -29 1 -32 7 -3 7 -4 3 -3 -7 1 -10 -4
-21 -11 -23 -6 -3 -10 1 -9 9 2 7 2 10 0 6 -3 -5 -9 -8 -14 -8 -6 0 -7 5 -3
12 4 6 3 8 -4 4 -5 -3 -13 0 -15 6 -4 10 -6 10 -6 0 -1 -8 -6 -10 -13 -6 -10
6 -10 4 0 -7 14 -15 16 -29 4 -29 -5 0 -14 10 -20 23 -6 12 -11 16 -11 10 -1
-7 -5 -13 -11 -13 -5 0 -8 6 -6 13 1 6 1 9 -1 4 -3 -4 -10 -4 -16 0 -8 5 -8 2
0 -9 7 -8 10 -18 6 -21 -9 -10 -25 -9 -19 1 2 4 1 14 -5 22 -6 10 -9 11 -9 3
0 -7 -4 -13 -10 -13 -5 0 -8 6 -6 13 1 6 1 9 -1 4 -3 -4 -10 -4 -16 0 -8 5 -8
2 0 -9 7 -8 10 -18 6 -22 -4 -4 -13 4 -21 16 -7 13 -11 15 -8 6 8 -26 -3 -22
-14 5 -7 17 -9 18 -9 5z m210 -35 c3 1 -4 -6 -14 -16 -15 -13 -23 -14 -33 -6
-18 14 -55 -6 -48 -26 4 -8 10 -15 15 -15 12 0 11 17 -1 23 -6 3 -5 4 2 3 20
-4 20 -22 -2 -47 -12 -13 -19 -18 -15 -11 3 6 2 12 -3 12 -6 0 -13 -7 -16 -16
-8 -20 12 -47 27 -37 5 3 2 -8 -8 -25 -12 -20 -25 -29 -37 -27 -19 4 -25 -10
-8 -20 6 -4 4 -16 -6 -31 -12 -18 -20 -22 -29 -14 -9 8 -15 8 -20 0 -3 -6 -12
-8 -18 -4 -7 3 2 -6 18 -21 17 -14 25 -24 19 -21 -13 6 -47 -28 -37 -37 3 -4
1 -7 -6 -7 -7 0 -10 -4 -6 -9 3 -5 1 -12 -4 -16 -6 -3 -8 -13 -5 -23 5 -14 3
-14 -6 2 -10 14 -10 20 0 26 8 5 7 9 -5 14 -9 3 -14 10 -11 15 3 5 0 11 -7 14
-17 6 -15 46 2 56 7 5 13 12 14 17 1 5 10 8 20 7 20 -3 22 8 5 25 -13 13 -8
15 16 6 8 -3 13 -13 10 -22 -5 -14 -3 -14 6 1 9 14 15 15 25 7 13 -11 13 -8 6
29 -1 2 -8 -2 -16 -9 -18 -15 -19 -1 -2 20 15 19 37 24 37 8 0 -6 7 -3 16 8 8
10 12 13 8 5 -5 -9 -3 -12 5 -7 6 4 9 12 5 17 -3 5 -9 7 -14 4 -4 -3 -11 2
-14 11 -3 8 -2 13 2 10 5 -3 8 8 7 24 -1 16 3 28 9 27 6 -1 9 5 7 13 -2 8 -5
22 -6 30 -2 8 -4 16 -4 18 -1 2 -6 0 -11 -3 -8 -5 -7 -12 2 -23 11 -13 10 -14
-9 -4 -18 10 -21 18 -14 51 1 2 12 -4 26 -13 27 -18 39 -21 30 -7 -3 6 4 15
16 21 12 7 19 8 15 2 -7 -12 21 -25 36 -16 5 3 7 13 4 23 -5 14 -4 14 7 -1 8
-10 16 -17 18 -15z m59 23 c0 -2 -8 -10 -17 -17 -16 -13 -17 -12 -4 4 13 16
21 21 21 13z m-252 -31 c2 -9 0 -15 -5 -12 -5 3 -15 2 -23 -4 -10 -5 -11 -9
-3 -9 7 0 10 -7 7 -15 -5 -13 -9 -13 -22 -3 -13 11 -14 11 -7 -1 6 -10 4 -12
-4 -6 -9 5 -8 13 7 29 11 11 18 26 15 33 -2 6 4 10 14 9 10 -2 20 -11 21 -21z
m27 -15 c-3 -5 0 -12 6 -15 5 -4 8 -14 4 -22 -4 -13 -3 -14 10 -3 13 11 14 8
10 -16 -2 -16 -6 -38 -9 -49 -2 -11 -5 -24 -5 -28 -1 -5 -5 -6 -10 -3 -5 3
-16 -6 -25 -19 -9 -14 -21 -23 -26 -20 -19 11 -32 -6 -18 -23 9 -11 9 -14 1
-9 -7 4 -22 2 -34 -5 -17 -11 -23 -11 -26 0 -3 7 -11 19 -19 27 -9 9 -10 16
-4 20 6 4 7 11 4 17 -4 7 -2 8 4 4 6 -4 11 1 12 11 1 45 5 61 12 57 7 -5 12
11 9 29 -2 11 32 4 41 -8 12 -15 9 -22 -7 -22 -8 0 -15 5 -15 11 0 6 -5 4 -10
-4 -5 -8 -7 -24 -4 -35 4 -17 3 -18 -6 -5 -10 13 -11 12 -6 -3 4 -12 2 -16 -6
-11 -7 4 -8 3 -4 -5 6 -9 11 -9 21 -1 11 9 14 7 12 -9 -1 -12 -7 -19 -13 -17
-23 9 -35 -19 -19 -40 15 -19 15 -19 8 1 -6 18 -5 19 13 5 18 -14 18 -14 4 4
-14 18 -13 19 3 13 12 -5 16 -3 11 5 -5 7 -3 8 6 3 8 -5 11 -4 7 2 -4 6 4 9
18 7 14 -1 25 2 25 8 0 5 -8 7 -18 4 -12 -4 -19 -1 -19 8 0 16 37 18 37 1 0
-5 5 -2 11 8 6 9 16 14 22 11 8 -5 8 -3 0 7 -16 16 -17 30 -2 27 6 -2 14 4 16
12 3 9 1 11 -4 5 -14 -17 -36 -17 -29 0 3 8 9 23 13 32 5 13 3 15 -11 10 -11
-5 -15 -3 -10 5 4 7 3 8 -4 4 -6 -4 -9 -13 -6 -20 3 -7 -2 -16 -10 -19 -12 -5
-13 -2 -6 17 5 13 6 27 2 32 -4 4 -1 4 6 0 7 -4 15 -1 18 8 3 9 10 13 15 10 5
-3 7 -9 4 -14z m120 -10 c4 -6 12 -7 18 -3 7 4 6 -1 -2 -10 -8 -10 -14 -16
-15 -15 -1 2 -8 11 -15 21 -8 10 -9 17 -3 17 6 0 14 -5 17 -10z m-139 -57 c1
-10 3 -24 5 -32 2 -7 -4 -15 -13 -16 -10 -2 -18 1 -18 7 0 6 -7 5 -16 -3 -13
-10 -17 -10 -25 2 -12 20 -11 26 6 26 10 0 14 -6 10 -16 -3 -10 1 -8 10 4 18
25 35 45 38 45 2 0 3 -8 3 -17z m-94 -177 c-9 -16 -10 -46 0 -52 4 -3 6 -9 3
-14 -3 -4 1 -10 8 -13 8 -3 12 -23 12 -53 0 -40 -3 -48 -17 -46 -9 1 -19 -6
-23 -17 -3 -10 -13 -25 -23 -33 -15 -12 -16 -11 -3 5 10 13 11 20 2 31 -9 10
-9 16 -1 21 8 5 6 13 -7 27 -18 20 -18 24 -4 43 7 9 7 31 1 38 -10 9 -4 65 8
79 11 13 18 15 32 5 10 -6 16 -16 12 -21z"/>
<path d="M115 841 c3 -5 1 -12 -3 -15 -7 -4 -8 -39 -2 -56 1 -3 2 -8 1 -12 -3
-18 15 -6 26 17 8 19 8 31 0 50 -7 14 -16 25 -20 25 -5 0 -6 -4 -2 -9z m20
-41 c0 -7 -7 -15 -15 -17 -13 -4 -13 -3 0 6 13 10 13 12 0 22 -13 9 -13 10 0
6 8 -2 15 -10 15 -17z"/>
<path d="M150 981 c0 -5 7 -11 14 -14 10 -4 13 -1 9 9 -6 15 -23 19 -23 5z"/>
<path d="M45 840 c-3 -5 -3 -10 2 -10 4 0 1 -5 -7 -10 -13 -8 -12 -10 3 -10 9
0 17 -4 17 -10 0 -5 -8 -10 -17 -10 -11 0 -14 -3 -8 -8 6 -4 10 -14 10 -22 -1
-8 2 -22 5 -30 10 -20 1 -42 -12 -34 -7 4 -8 2 -4 -5 4 -6 11 -9 16 -6 4 3 11
-2 14 -10 3 -9 -1 -18 -9 -21 -8 -4 -12 -10 -9 -16 3 -5 13 0 21 11 8 12 18
19 22 17 17 -11 3 35 -15 50 -10 8 -14 13 -7 10 6 -4 15 -1 19 5 4 7 3 9 -2 6
-6 -3 -16 4 -23 15 -11 18 -11 20 4 14 13 -5 15 -3 8 6 -5 7 -8 23 -7 36 0 12
-3 22 -8 22 -5 0 -6 5 -3 10 3 6 4 10 1 10 -3 0 -8 -4 -11 -10z m38 -156 c-7
-19 -10 -18 -16 5 -3 13 -1 18 9 14 7 -2 10 -11 7 -19z"/>
<path d="M660 1132 c0 -3 10 -26 23 -51 59 -121 3 -278 -119 -336 -73 -35
-174 -28 -237 17 -15 11 -31 17 -34 14 -9 -9 -4 -102 8 -154 32 -145 171 -281
314 -307 219 -40 419 80 484 290 20 63 21 158 3 226 -36 137 -173 268 -307
294 -51 10 -135 14 -135 7z"/>
<path d="M1315 838 c-27 -46 -70 -120 -97 -165 -26 -45 -48 -84 -48 -87 0 -3
-16 -30 -35 -60 -19 -30 -35 -57 -35 -60 0 -6 -25 -36 -67 -82 -12 -13 -27
-24 -33 -24 -5 0 -10 -4 -10 -10 0 -5 -12 -16 -27 -24 -34 -18 -40 -18 157
-18 l144 -1 33 48 c18 27 30 52 27 57 -3 4 -1 8 4 8 5 0 22 39 38 88 22 69 28
109 30 193 2 101 -9 194 -26 212 -4 5 -29 -29 -55 -75z"/>
<path d="M215 690 c3 -5 3 -10 -2 -10 -10 0 -43 -57 -43 -76 0 -8 -4 -14 -10
-14 -11 0 -44 -60 -33 -60 5 0 1 -6 -7 -13 -37 -30 -41 -43 -19 -65 11 -12 15
-22 10 -22 -6 0 -14 7 -19 16 -7 13 -11 14 -17 4 -4 -7 -3 -15 2 -19 6 -3 10
-13 10 -21 0 -20 53 -100 66 -100 6 0 7 -3 4 -6 -11 -11 44 -68 76 -79 17 -5
33 -17 35 -25 4 -11 1 -10 -12 3 -10 9 -22 17 -28 17 -14 0 77 -71 122 -96 19
-10 37 -22 40 -26 3 -4 15 -9 25 -11 11 -2 37 -12 58 -21 22 -9 46 -15 55 -13
11 3 8 5 -8 7 -23 1 -23 2 -5 10 11 5 14 9 8 9 -7 1 -13 7 -13 15 0 23 -84
156 -99 156 -11 0 -11 -3 -1 -15 7 -9 10 -18 6 -22 -3 -3 -6 -1 -6 5 0 7 -15
21 -32 32 -18 11 -26 20 -18 20 9 0 20 -4 26 -10 5 -5 15 -6 21 -2 8 5 2 12
-17 19 -24 9 -33 8 -45 -4 -9 -8 -15 -10 -15 -3 0 6 7 13 15 16 8 4 12 11 8
17 -3 6 4 3 18 -6 32 -23 50 -21 22 2 -12 10 -19 21 -16 25 3 3 -2 9 -11 12
-14 5 -15 9 -4 15 10 7 9 9 -4 9 -9 0 -19 -6 -21 -12 -4 -10 -6 -9 -6 1 -1 11
-6 10 -21 -4 -11 -10 -20 -15 -20 -11 0 11 28 37 37 35 20 -3 34 2 28 11 -4 6
-11 8 -16 5 -5 -4 -9 1 -9 9 0 12 -53 120 -67 136 -3 3 -13 -5 -23 -17 -10
-13 -21 -23 -25 -23 -4 0 -2 6 4 14 9 11 6 14 -13 14 -21 0 -24 -3 -16 -18 7
-14 4 -24 -11 -42 l-21 -23 15 26 c11 18 13 29 5 37 -13 13 -2 31 20 31 32 -1
56 8 60 21 3 7 0 10 -7 6 -7 -4 -9 -2 -5 8 3 9 -2 17 -15 21 -25 7 -27 23 -6
31 20 8 19 30 -1 38 -15 6 -15 4 -3 -11 8 -9 9 -14 2 -10 -6 4 -14 1 -17 -5
-2 -7 -3 -2 -1 12 1 14 8 24 14 23 6 -2 11 6 11 17 0 11 -5 20 -11 20 -5 0 -7
-4 -4 -10z m-49 -162 c-9 -12 -16 -17 -16 -11 0 7 5 15 10 18 6 3 11 16 11 28
1 17 2 18 6 5 2 -10 -3 -28 -11 -40z m44 32 c0 -11 -4 -20 -8 -20 -4 0 -8 9
-8 20 0 11 4 20 8 20 4 0 8 -9 8 -20z m-50 -4 c0 -2 -8 -10 -17 -17 -16 -13
-17 -12 -4 4 13 16 21 21 21 13z m2 -85 c-6 -14 -7 -14 -10 2 -2 9 -8 17 -13
17 -5 0 -9 5 -9 10 0 6 7 6 19 -2 12 -7 17 -18 13 -27z m-46 14 c-3 -9 3 -19
14 -25 21 -11 27 -30 9 -30 -5 0 -7 5 -4 10 3 6 0 10 -9 10 -8 0 -16 6 -19 13
-4 13 2 37 10 37 3 0 3 -7 -1 -15z m158 -7 c-3 -4 0 -8 5 -8 6 0 11 -5 11 -11
0 -8 -4 -8 -14 0 -7 6 -20 10 -27 8 -8 -2 -11 -2 -6 0 4 3 5 9 2 13 -3 5 3 8
14 7 11 0 17 -5 15 -9z m-63 -22 c-10 -12 -7 -18 18 -30 16 -9 36 -14 43 -13
7 2 10 2 6 0 -4 -2 -6 -10 -4 -16 1 -7 1 -9 -1 -4 -3 4 -9 5 -14 1 -5 -3 -9 0
-9 5 0 6 -5 11 -12 11 -6 0 -19 7 -29 16 -14 13 -16 20 -6 35 6 10 13 16 16
14 2 -3 -2 -11 -8 -19z m59 -16 c0 -5 -4 -10 -10 -10 -5 0 -10 5 -10 10 0 6 5
10 10 10 6 0 10 -4 10 -10z m-89 -24 c-9 -10 -6 -17 13 -30 14 -9 32 -13 41
-10 8 4 22 1 30 -6 13 -10 17 -7 30 21 9 23 14 28 15 15 0 -11 -7 -27 -16 -37
-13 -15 -20 -16 -35 -6 -17 10 -23 8 -39 -13 -10 -13 -16 -28 -14 -32 3 -4 0
-8 -5 -8 -14 0 -14 6 1 30 11 18 9 23 -17 45 -29 24 -30 24 -44 5 -18 -26 -28
-25 -41 3 -10 20 -10 20 3 5 8 -10 17 -18 21 -18 11 0 6 28 -6 33 -7 3 2 4 20
2 17 -2 32 1 32 6 0 5 5 9 11 9 8 0 8 -4 0 -14z m39 -16 c8 -5 11 -10 5 -10
-5 0 -17 5 -25 10 -8 5 -10 10 -5 10 6 0 17 -5 25 -10z m-50 -31 c0 -5 -7 -9
-16 -9 -14 0 -14 -3 -3 -16 11 -14 14 -13 25 8 10 16 13 18 14 7 0 -9 -6 -22
-14 -28 -11 -9 -18 -8 -31 5 -16 16 -16 19 -1 29 9 7 12 16 8 20 -4 5 -1 5 6
1 6 -4 12 -11 12 -17z m114 -48 c33 -34 27 -52 -15 -47 -19 2 -28 -1 -26 -8 2
-6 15 -10 28 -9 13 1 19 -1 12 -3 -7 -3 -9 -13 -6 -22 4 -15 3 -15 -6 -2 -6 8
-11 11 -11 5 0 -5 -7 0 -15 12 -13 18 -13 26 -3 43 7 11 17 20 22 20 4 0 3 -6
-3 -14 -9 -11 -6 -13 13 -13 22 0 24 2 15 18 -5 10 -22 25 -37 33 -16 9 -21
15 -11 16 8 0 28 -13 43 -29z m-44 2 c-1 -5 -7 -19 -15 -33 -10 -18 -14 -20
-15 -8 0 9 5 20 10 23 6 4 8 11 5 16 -4 5 -1 9 4 9 6 0 11 -3 11 -7z m101 -12
c-10 -11 -19 -13 -23 -7 -13 18 -9 24 16 24 22 0 22 -2 7 -17z m-146 -31 c0
-5 9 -17 20 -26 19 -15 19 -15 -5 -1 -14 9 -24 20 -22 26 1 6 -2 11 -8 11 -5
0 -10 5 -10 12 0 9 3 9 13 0 6 -7 12 -17 12 -22z m118 -35 c-3 -13 -12 -30
-21 -37 -9 -7 -13 -8 -9 -2 3 6 11 23 16 38 13 33 20 34 14 1z m47 -5 c0 -5
-4 -10 -10 -10 -5 0 -10 5 -10 10 0 6 5 10 10 10 6 0 10 -4 10 -10z m19 -27
c-12 -14 -12 -16 2 -11 9 3 22 2 30 -4 11 -8 11 -9 -2 -5 -9 3 -27 -2 -40 -10
-12 -9 -19 -12 -16 -6 4 6 0 13 -8 17 -8 3 -15 11 -14 18 0 10 2 10 6 1 2 -7
9 -13 14 -13 6 0 7 5 3 12 -4 7 -3 8 4 4 7 -4 12 -2 12 3 0 6 5 11 11 11 8 0
7 -6 -2 -17z m65 -8 c3 -8 1 -15 -4 -15 -6 0 -10 7 -10 15 0 8 2 15 4 15 2 0
6 -7 10 -15z m-114 -24 c8 -15 8 -21 1 -17 -6 4 -11 2 -11 -4 0 -7 -6 -5 -15
4 -20 20 -19 32 1 15 15 -12 16 -11 9 11 -9 29 -3 25 15 -9z m68 -21 c-15 -24
-25 -26 -25 -5 0 8 4 12 9 9 4 -3 8 0 8 5 0 6 5 11 10 11 6 0 5 -8 -2 -20z
m23 -7 c-12 -20 -14 -14 -5 12 4 9 9 14 11 11 3 -2 0 -13 -6 -23z m43 11 c3
-8 2 -12 -4 -9 -6 3 -10 1 -10 -4 0 -6 -5 -11 -10 -11 -6 0 -5 8 2 20 15 24
14 24 22 4z m27 -41 c10 -12 10 -14 1 -9 -7 4 -15 1 -18 -8 -3 -9 -11 -16 -16
-16 -6 0 -4 8 3 17 12 14 12 16 -2 11 -9 -3 -22 -2 -30 4 -11 8 -11 9 2 5 9
-3 22 -1 30 4 8 5 15 9 15 9 1 0 8 -8 15 -17z m-75 -7 c20 -21 17 -28 -6 -14
-11 7 -20 16 -20 20 0 12 10 9 26 -6z"/>
<path d="M225 600 c3 -5 11 -10 16 -10 6 0 7 5 4 10 -3 6 -11 10 -16 10 -6 0
-7 -4 -4 -10z"/>
<path d="M496 255 c19 -30 34 -58 34 -63 0 -4 10 -19 23 -32 12 -14 22 -27 22
-30 0 -3 4 -4 8 -2 5 1 6 -2 3 -7 -3 -5 4 -28 16 -50 l22 -41 92 0 c65 0 94 4
97 13 4 8 6 9 6 0 1 -16 119 17 192 53 68 34 102 58 159 111 l45 42 -200 0
c-141 -1 -202 -4 -207 -12 -6 -9 -8 -9 -8 1 0 6 -10 12 -23 12 -13 0 -29 -6
-36 -12 -11 -10 -12 -10 -7 -1 5 10 -6 12 -48 10 -31 -1 -56 1 -56 4 0 4 -13
6 -30 5 -16 -1 -31 1 -32 4 -2 3 -26 15 -55 27 l-52 21 35 -53z m69 -23 c-3
-3 -11 0 -18 7 -9 10 -8 11 6 5 10 -3 15 -9 12 -12z m225 -6 c0 -3 -4 -8 -10
-11 -5 -3 -10 -1 -10 4 0 6 5 11 10 11 6 0 10 -2 10 -4z m235 -6 c3 -5 1 -10
-4 -10 -6 0 -11 5 -11 10 0 6 2 10 4 10 3 0 8 -4 11 -10z m-399 -56 c1 -9 0
-13 -4 -10 -3 4 -7 14 -8 22 -1 9 0 13 4 10 3 -4 7 -14 8 -22z m44 20 c0 -8
-19 -13 -24 -6 -3 5 1 9 9 9 8 0 15 -2 15 -3z m240 2 c0 -3 -4 -8 -10 -11 -5
-3 -10 -1 -10 4 0 6 5 11 10 11 6 0 10 -2 10 -4z m200 -6 c0 -5 -5 -10 -11
-10 -5 0 -7 5 -4 10 3 6 8 10 11 10 2 0 4 -4 4 -10z m-320 -40 c0 -5 -2 -10
-4 -10 -3 0 -8 5 -11 10 -3 6 -1 10 4 10 6 0 11 -4 11 -10z m200 6 c0 -3 -4
-8 -10 -11 -5 -3 -10 -1 -10 4 0 6 5 11 10 11 6 0 10 -2 10 -4z m44 -4 c3 -5
-1 -9 -9 -9 -8 0 -12 4 -9 9 3 4 7 8 9 8 2 0 6 -4 9 -8z m36 -2 c0 -5 -2 -10
-4 -10 -3 0 -8 5 -11 10 -3 6 -1 10 4 10 6 0 11 -4 11 -10z m-183 -15 c0 -8
-4 -15 -9 -15 -10 0 -11 14 -1 23 9 10 10 9 10 -8z m-102 -14 c3 -5 2 -12 -3
-15 -5 -3 -9 1 -9 9 0 17 3 19 12 6z m-75 -11 c0 -5 -5 -10 -11 -10 -5 0 -7 5
-4 10 3 6 8 10 11 10 2 0 4 -4 4 -10z m35 -39 c3 -5 2 -12 -3 -15 -5 -3 -9 1
-9 9 0 17 3 19 12 6z m45 -1 c0 -5 -5 -10 -11 -10 -5 0 -7 5 -4 10 3 6 8 10
11 10 2 0 4 -4 4 -10z"/>
</g>
</svg>
