<svg width="14" height="15" viewBox="0 0 14 15" fill="none" xmlns="http://www.w3.org/2000/svg">
<path d="M8.30179 5.39303C8.61454 5.36128 8.92661 5.32249 9.23937 5.2978C10.1715 5.21456 11.1029 5.17294 12.0254 5.38738C12.1804 5.4234 12.3321 5.4732 12.4787 5.53623C13.1461 5.82545 13.3985 6.34605 13.1303 7.03524C12.9561 7.48107 12.9986 7.80415 13.2881 8.18507C13.7353 8.77621 13.6598 9.31868 13.1241 9.83434C12.9184 10.0304 12.8937 10.1913 13.0494 10.4382C13.5185 11.181 13.4746 11.648 12.8937 12.2941C12.725 12.4818 12.6989 12.6617 12.7901 12.8994C13.0775 13.6485 12.8958 14.1995 12.1728 14.4972C11.6351 14.7165 11.0706 14.859 10.4952 14.9204C9.12219 15.069 7.73534 15.0072 6.37997 14.737C6.15691 14.6952 5.94 14.6241 5.73457 14.5254C5.0313 14.163 4.26962 13.9356 3.48697 13.8545C3.05556 13.8143 3.00686 13.7445 3.00686 13.3036C3.00686 11.2304 3.01303 9.15784 3 7.08533C3 6.66984 3.15021 6.37991 3.44582 6.11749C4.86214 4.84774 6.1022 3.42068 7.01921 1.72062C7.22497 1.34323 7.38958 0.944664 7.5679 0.553157C7.84225 -0.0485646 8.33128 -0.179067 8.83677 0.258998C9.54596 0.874827 9.72223 1.7051 9.6166 2.61086C9.51098 3.51662 9.07819 4.28975 8.51098 4.98177C8.42524 5.08617 8.34294 5.1934 8.25858 5.2978L8.30179 5.39303Z" fill="#0095D9"/>
<path d="M2.18861 10.3907C2.18861 11.6195 2.18861 12.8486 2.18861 14.0779C2.18861 14.5576 2.09534 14.6514 1.62894 14.6535C1.24211 14.6535 0.854596 14.6584 0.467764 14.6535C0.102881 14.6472 0.00480093 14.5463 0.00411506 14.1654C0.00411506 11.6371 0.00411523 9.10893 0 6.58071C0 6.2541 0.137175 6.10737 0.451989 6.1109C0.863512 6.11584 1.27161 6.1109 1.68107 6.1109C2.09054 6.1109 2.18656 6.21742 2.18724 6.63291C2.18999 7.88573 2.18793 9.13644 2.18861 10.3907Z" fill="#0095D9"/>
</svg>
