<svg width="18" height="18" viewBox="0 0 18 18" fill="none" xmlns="http://www.w3.org/2000/svg">
<path d="M16.9087 14.562L14.9361 11.8004C14.4047 12.1879 13.1808 13.0192 11.3692 13.8611C10.0367 14.481 8.63969 14.9883 7.21857 15.3687V17.4716C7.21857 17.764 7.4883 18 7.82244 18H10.1735C10.5077 18 10.7774 17.764 10.7774 17.4716V15.3652H16.3975C16.6149 15.3652 16.8202 15.2595 16.9248 15.0939C17.0295 14.9284 17.0255 14.7241 16.9087 14.562Z" fill="#3C3C46"/>
<path d="M10.7694 12.9452C11.7275 12.5014 12.5166 12.0575 13.1124 11.6877C12.3555 11.6137 11.5866 11.4587 10.8096 11.2227C9.71458 10.8916 8.60346 10.402 7.50843 9.76791C6.07926 8.94012 5.06072 8.08767 4.64606 7.71781L3.29741 9.42975C3.16858 9.59178 3.15651 9.79961 3.26118 9.97573C3.36585 10.1483 3.57117 10.2575 3.79661 10.2575H4.15894L1.09126 14.562C0.974507 14.7241 0.970481 14.9284 1.07515 15.0975C1.08723 15.1186 1.10333 15.1362 1.11944 15.1573C5.27007 15.101 8.65982 13.9245 10.7694 12.9452ZM6.87637 11.272C7.31922 11.272 7.68154 11.589 7.68154 11.98C7.68154 12.371 7.32324 12.6881 6.87637 12.6881C6.43353 12.6881 6.07121 12.371 6.07121 11.98C6.07523 11.589 6.43353 11.272 6.87637 11.272Z" fill="#3C3C46"/>
<path d="M10.5721 2.94129L9.5294 1.68023C9.83133 1.52172 10.0326 1.23288 10.0326 0.905284C10.0326 0.405088 9.56966 0 9.00201 0C8.43437 0 7.9714 0.405088 7.9714 0.905284C7.9714 1.2364 8.17269 1.52172 8.47463 1.68023L4.99631 5.87202C4.86346 6.03405 4.84333 6.2454 4.948 6.42153C4.99631 6.50254 5.06072 6.56595 5.14124 6.61526C8.35385 6.19256 9.93198 4.10724 10.5721 2.94129Z" fill="#3C3C46"/>
<path d="M9.56563 5.88611C8.57125 6.68219 7.42389 7.22818 6.1477 7.5135C6.6469 7.9045 7.3474 8.41174 8.20087 8.90489C9.64212 9.7362 11.7959 10.6838 14.139 10.6838L13.833 10.2575H14.1953C14.4208 10.2575 14.6261 10.1483 14.7308 9.97573C14.8354 9.80313 14.8193 9.59178 14.6945 9.42975L12.5528 6.71037C12.7662 6.6998 12.9554 6.59061 13.052 6.42505C13.1567 6.24892 13.1365 6.03757 13.0037 5.87554L11.3611 3.89589C10.9586 4.5229 10.3788 5.23444 9.56563 5.88611ZM10.1413 8.93659C9.69848 8.93659 9.33616 8.61957 9.33616 8.22857C9.33616 7.83757 9.69446 7.52055 10.1413 7.52055C10.5842 7.52055 10.9465 7.83757 10.9465 8.22857C10.9425 8.61957 10.5842 8.93659 10.1413 8.93659Z" fill="#3C3C46"/>
</svg>
