<svg width="11" height="11" viewBox="0 0 11 11" fill="none" xmlns="http://www.w3.org/2000/svg">
<path d="M2.35547 5.03906C3.21224 6.73438 4.4974 8.01953 6.21094 8.89453L7.49609 7.60938C7.66016 7.42708 7.86068 7.38151 8.09766 7.47266C8.75391 7.69141 9.44661 7.80078 10.1758 7.80078C10.3216 7.80078 10.4492 7.85547 10.5586 7.96484C10.6862 8.07422 10.75 8.21094 10.75 8.375V10.4258C10.75 10.5716 10.6862 10.7083 10.5586 10.8359C10.4492 10.9453 10.3216 11 10.1758 11C8.37109 11 6.70312 10.5625 5.17188 9.6875C3.65885 8.79427 2.45573 7.59115 1.5625 6.07812C0.6875 4.54688 0.25 2.87891 0.25 1.07422C0.25 0.928385 0.304688 0.800781 0.414062 0.691406C0.541667 0.563802 0.678385 0.5 0.824219 0.5H2.875C3.03906 0.5 3.17578 0.563802 3.28516 0.691406C3.39453 0.800781 3.44922 0.928385 3.44922 1.07422C3.44922 1.80339 3.55859 2.49609 3.77734 3.15234C3.85026 3.38932 3.80469 3.58984 3.64062 3.75391L2.35547 5.03906Z" fill="#0095D9"/>
</svg>
