<svg width="105" height="26" viewBox="0 0 105 26" fill="none" xmlns="http://www.w3.org/2000/svg">
<path d="M8.32031 17.875L3.16406 21L4.53125 15.1406L0 11.1953L5.97656 10.6875L8.32031 5.17969L10.6641 10.6875L16.6797 11.1953L12.1094 15.1406L13.4766 21L8.32031 17.875Z" fill="#FFC738"/>
<path d="M30.3203 17.875L25.1641 21L26.5312 15.1406L22 11.1953L27.9766 10.6875L30.3203 5.17969L32.6641 10.6875L38.6797 11.1953L34.1094 15.1406L35.4766 21L30.3203 17.875Z" fill="#FFC738"/>
<path d="M52.3203 17.875L47.1641 21L48.5312 15.1406L44 11.1953L49.9766 10.6875L52.3203 5.17969L54.6641 10.6875L60.6797 11.1953L56.1094 15.1406L57.4766 21L52.3203 17.875Z" fill="#FFC738"/>
<path d="M74.3203 17.875L69.1641 21L70.5312 15.1406L66 11.1953L71.9766 10.6875L74.3203 5.17969L76.6641 10.6875L82.6797 11.1953L78.1094 15.1406L79.4766 21L74.3203 17.875Z" fill="#FFC738"/>
<path d="M96.3203 17.875L91.1641 21L92.5312 15.1406L88 11.1953L93.9766 10.6875L96.3203 5.17969L98.6641 10.6875L104.68 11.1953L100.109 15.1406L101.477 21L96.3203 17.875Z" fill="#FFC738"/>
</svg>
