<svg width="33" height="33" viewBox="0 0 33 33" fill="none" xmlns="http://www.w3.org/2000/svg">
<path d="M32.3944 17.2246H30.9383C30.8157 16.3628 30.4402 15.5637 29.8807 14.8899C29.7888 7.57267 25.3055 1.6499 19.8106 1.6499H13.2045C7.70201 1.6499 3.21875 7.57267 3.12679 14.8899C2.55967 15.5637 2.19181 16.355 2.0692 17.2246H0.613095C0.275893 17.2246 0 17.4988 0 17.8513V22.1367C0 22.4814 0.275893 22.7635 0.613095 22.7635H2.01555V26.4221C2.01555 29.1328 4.49092 31.3421 7.53341 31.3421H10.1927C11.2733 31.3421 12.2926 30.7467 12.8367 29.7909C13.6107 28.4434 14.9748 27.6443 16.4999 27.6443C17.2586 27.6443 17.9867 27.8479 18.6151 28.2162C19.2435 28.5844 19.78 29.1249 20.1632 29.7987C20.7073 30.7545 21.7189 31.3499 22.8071 31.3499H25.4664C28.5089 31.3499 30.9843 29.1406 30.9843 26.4299V22.7713H32.3867C32.724 22.7713 32.9998 22.4893 32.9998 22.1445V17.8592C33.0075 17.4988 32.7316 17.2246 32.3944 17.2246ZM2.01555 21.51H1.22619V18.4781H2.01555V21.51ZM13.1969 2.9034H19.803C24.3552 2.9034 28.1257 7.68235 28.6085 13.801C28.5013 13.7383 28.394 13.6756 28.279 13.6208L27.528 11.8894C27.0375 10.7612 25.9416 10.0327 24.7307 10.0327H8.28445C7.07358 10.0327 5.97768 10.7612 5.4872 11.8894L4.73616 13.6208H4.7285C4.61354 13.6756 4.50625 13.7383 4.39896 13.801C4.88177 7.68235 8.64464 2.9034 13.1969 2.9034ZM26.6926 13.0567C26.3018 12.9784 25.8879 12.9314 25.4741 12.9314H7.53341C7.11957 12.9314 6.70573 12.9784 6.31488 13.0567L6.6061 12.3986C6.90498 11.7249 7.56406 11.2861 8.28445 11.2861H24.7307C25.4511 11.2861 26.1102 11.717 26.4091 12.3986L26.6926 13.0567ZM29.7658 26.4221C29.7658 28.4434 27.8422 30.0886 25.4741 30.0886H22.8148C22.1634 30.0886 21.558 29.7282 21.2361 29.1563C20.2398 27.4171 18.4772 26.3829 16.5076 26.3829C14.538 26.3829 12.7754 27.4171 11.7791 29.1563C11.4572 29.736 10.8441 30.0886 10.2004 30.0886H7.53341C5.16533 30.0886 3.24174 28.4434 3.24174 26.4221V17.8513C3.24174 16.9895 3.58661 16.2061 4.16905 15.5794C4.51391 15.2033 4.93542 14.8899 5.42589 14.6549C5.46421 14.6392 5.50253 14.6157 5.53318 14.6001C6.13095 14.3337 6.81302 14.177 7.54107 14.177H25.4818C26.2022 14.177 26.8842 14.3259 27.4897 14.6001C27.5203 14.6236 27.5586 14.6471 27.5969 14.6549C28.0874 14.8899 28.5089 15.2033 28.8538 15.5794C29.4362 16.2061 29.7811 16.9895 29.7811 17.8513V26.4221H29.7658ZM31.7813 21.51H30.992V18.4781H31.7813V21.51Z" fill="white"/>
</svg>
