<svg width="80" height="80" viewBox="0 0 80 80" fill="none" xmlns="http://www.w3.org/2000/svg">
<circle cx="40" cy="40" r="40" fill="#F0F3F9"/>
<path d="M39.7641 39.3024C42.3028 39.3024 44.4971 38.3969 46.2944 36.6231C48.0917 34.8418 48.9979 32.6672 48.9979 30.1512C48.9979 27.6352 48.0843 25.4606 46.2944 23.6793C44.4971 21.898 42.3028 21 39.7641 21C37.2254 21 35.0311 21.9055 33.2338 23.6793C31.4365 25.4531 30.5228 27.6352 30.5228 30.1512C30.5228 32.6672 31.4365 34.8418 33.2263 36.6231C35.0236 38.4043 37.2254 39.3024 39.7641 39.3024Z" fill="#CBD0D8"/>
<path d="M55.9176 50.2199C55.8652 49.4777 55.7604 48.6687 55.6106 47.8152C55.4533 46.9543 55.2511 46.1453 55.0115 45.4031C54.7643 44.6386 54.4273 43.8742 54.008 43.1543C53.5736 42.3972 53.0644 41.7441 52.4952 41.2023C51.8961 40.6383 51.1697 40.1855 50.3234 39.8515C49.4847 39.525 48.5486 39.3543 47.5525 39.3543C47.1631 39.3543 46.7812 39.5101 46.0548 39.9851C45.6054 40.2746 45.0812 40.6086 44.4896 40.9871C43.9878 41.3062 43.3063 41.6031 42.4676 41.8703C41.6513 42.1301 40.8125 42.2636 39.9963 42.2636C39.18 42.2636 38.3412 42.1301 37.5249 41.8703C36.6862 41.6031 36.0047 41.3062 35.5029 40.9871C34.9188 40.616 34.3946 40.282 33.9377 39.9851C33.2038 39.5101 32.8294 39.3543 32.44 39.3543C31.4439 39.3543 30.5078 39.525 29.6691 39.8515C28.8228 40.1855 28.0964 40.6383 27.4973 41.2023C26.9282 41.7441 26.4189 42.3972 25.9846 43.1543C25.5652 43.8816 25.2282 44.6386 24.981 45.4031C24.7414 46.1453 24.5392 46.9543 24.3819 47.8152C24.2247 48.6687 24.1198 49.4777 24.0749 50.2199C24.0225 50.9473 24 51.7043 24 52.4613C24 54.443 24.6366 56.0535 25.8872 57.2336C27.1378 58.4062 28.7779 59 30.77 59H49.23C51.2221 59 52.8622 58.4062 54.1053 57.241C55.3634 56.0609 56 54.4504 56 52.4687C56 51.6969 55.97 50.9473 55.9176 50.2199Z" fill="#CBD0D8"/>
</svg>
