<svg width="169" height="828" viewBox="0 0 169 828" fill="none" xmlns="http://www.w3.org/2000/svg">
<path d="M154 130.52L153.603 131.438L155 132.043L155 130.52L154 130.52ZM35 79.01L34 79.01L34 79.6668L34.6028 79.9277L35 79.01ZM35 51.81L34.6039 50.8918L34 51.1523L34 51.81L35 51.81ZM154 0.469998L155 0.469998L155 -1.05053L153.604 -0.448195L154 0.469998ZM154 30.22L154.392 31.14L155 30.881L155 30.22L154 30.22ZM69 66.43L68.6081 65.51L66.4635 66.4236L68.6034 67.348L69 66.43ZM154 103.15L155 103.15L155 102.493L154.397 102.232L154 103.15ZM154.397 129.602L35.3972 78.0923L34.6028 79.9277L153.603 131.438L154.397 129.602ZM36 79.01L36 51.81L34 51.81L34 79.01L36 79.01ZM35.3961 52.7282L154.396 1.38819L153.604 -0.448195L34.6039 50.8918L35.3961 52.7282ZM153 0.469998L153 30.22L155 30.22L155 0.469998L153 0.469998ZM153.608 29.3L68.6081 65.51L69.3919 67.35L154.392 31.14L153.608 29.3ZM68.6034 67.348L153.603 104.068L154.397 102.232L69.3966 65.512L68.6034 67.348ZM153 103.15L153 130.52L155 130.52L155 103.15L153 103.15ZM126.46 140.246L127.46 140.246L127.46 139.246L126.46 139.246L126.46 140.246ZM126.46 166.766L126.46 167.766L127.46 167.766L127.46 166.766L126.46 166.766ZM35 166.766L34 166.766L34 167.766L35 167.766L35 166.766ZM35 140.246L35 139.246L34 139.246L34 140.246L35 140.246ZM143.46 141.606L142.726 140.926L142.726 140.926L143.46 141.606ZM164.54 141.606L163.806 142.285L163.806 142.285L164.54 141.606ZM164.71 165.406L163.963 164.741L163.963 164.741L164.71 165.406ZM143.46 165.406L142.726 166.085L142.733 166.092L142.74 166.1L143.46 165.406ZM125.46 140.246L125.46 166.766L127.46 166.766L127.46 140.246L125.46 140.246ZM126.46 165.766L35 165.766L35 167.766L126.46 167.766L126.46 165.766ZM36 166.766L36 140.246L34 140.246L34 166.766L36 166.766ZM35 141.246L126.46 141.246L126.46 139.246L35 139.246L35 141.246ZM140.21 153.506C140.21 148.839 141.56 145.13 144.194 142.285L142.726 140.926C139.693 144.202 138.21 148.426 138.21 153.506L140.21 153.506ZM144.194 142.285C146.837 139.431 150.083 138.016 154 138.016L154 136.016C149.53 136.016 145.75 137.661 142.726 140.926L144.194 142.285ZM154 138.016C157.917 138.016 161.163 139.431 163.806 142.285L165.274 140.926C162.25 137.661 158.47 136.016 154 136.016L154 138.016ZM163.806 142.285C166.44 145.13 167.79 148.839 167.79 153.506L169.79 153.506C169.79 148.426 168.307 144.202 165.274 140.926L163.806 142.285ZM167.79 153.506C167.79 158.183 166.49 161.898 163.963 164.741L165.457 166.07C168.37 162.793 169.79 158.575 169.79 153.506L167.79 153.506ZM163.963 164.741C161.432 167.589 158.303 168.996 154.51 168.996L154.51 170.996C158.877 170.996 162.548 169.343 165.457 166.07L163.963 164.741ZM154.51 168.996C150.349 168.996 146.93 167.568 144.18 164.712L142.74 166.1C145.883 169.364 149.831 170.996 154.51 170.996L154.51 168.996ZM144.194 164.726C141.56 161.882 140.21 158.173 140.21 153.506L138.21 153.506C138.21 158.586 139.693 162.81 142.726 166.085L144.194 164.726ZM114.39 216.709L114.39 215.709L111.282 215.709L113.807 217.521L114.39 216.709ZM124.42 229.459L125.343 229.074L125.34 229.067L124.42 229.459ZM127.82 248.159L127.82 249.159L128.82 249.159L128.82 248.159L127.82 248.159ZM103.34 248.159L102.343 248.082L102.26 249.159L103.34 249.159L103.34 248.159ZM97.22 224.359L96.5035 225.056L96.5129 225.066L97.22 224.359ZM35 217.899L34 217.899L34 218.899L35 218.899L35 217.899ZM35 191.379L35 190.379L34 190.379L34 191.379L35 191.379ZM126.46 191.379L127.46 191.379L127.46 190.379L126.46 190.379L126.46 191.379ZM126.46 216.709L126.46 217.709L127.46 217.709L127.46 216.709L126.46 216.709ZM113.807 217.521C118.068 220.581 121.3 224.681 123.5 229.85L125.34 229.067C123.007 223.583 119.552 219.183 114.973 215.896L113.807 217.521ZM123.497 229.843C125.704 235.14 126.82 241.239 126.82 248.159L128.82 248.159C128.82 241.025 127.669 234.657 125.343 229.074L123.497 229.843ZM127.82 247.159L103.34 247.159L103.34 249.159L127.82 249.159L127.82 247.159ZM104.337 248.235C104.563 245.294 104.68 243.273 104.68 242.209L102.68 242.209C102.68 243.184 102.57 245.13 102.343 248.082L104.337 248.235ZM104.68 242.209C104.68 234.419 102.465 228.19 97.9271 223.652L96.5129 225.066C100.588 229.141 102.68 234.811 102.68 242.209L104.68 242.209ZM97.9365 223.661C93.4882 219.093 86.8364 216.899 78.18 216.899L78.18 218.899C86.5236 218.899 92.5651 221.011 96.5035 225.056L97.9365 223.661ZM78.18 216.899L35 216.899L35 218.899L78.18 218.899L78.18 216.899ZM36 217.899L36 191.379L34 191.379L34 217.899L36 217.899ZM35 192.379L126.46 192.379L126.46 190.379L35 190.379L35 192.379ZM125.46 191.379L125.46 216.709L127.46 216.709L127.46 191.379L125.46 191.379ZM126.46 215.709L114.39 215.709L114.39 217.709L126.46 217.709L126.46 215.709ZM39.42 326.072L38.6158 326.666L39.0672 327.277L39.7767 327.006L39.42 326.072ZM35 316.382L34.0281 316.617L34.0306 316.628L34.0333 316.638L35 316.382ZM41.97 279.152L41.2422 278.466L41.2357 278.473L41.97 279.152ZM104.02 270.312L104.02 271.312L105.02 271.312L105.02 270.312L104.02 270.312ZM104.02 256.202L104.02 255.202L103.02 255.202L103.02 256.202L104.02 256.202ZM124.42 256.202L125.42 256.202L125.42 255.202L124.42 255.202L124.42 256.202ZM124.42 270.312L123.42 270.312L123.42 271.312L124.42 271.312L124.42 270.312ZM146.69 270.312L147.69 270.312L147.69 269.312L146.69 269.312L146.69 270.312ZM146.69 296.832L146.69 297.832L147.69 297.832L147.69 296.832L146.69 296.832ZM124.42 296.832L124.42 295.832L123.42 295.832L123.42 296.832L124.42 296.832ZM124.42 319.612L124.42 320.612L125.42 320.612L125.42 319.612L124.42 319.612ZM104.02 319.612L103.02 319.612L103.02 320.612L104.02 320.612L104.02 319.612ZM104.02 296.832L105.02 296.832L105.02 295.832L104.02 295.832L104.02 296.832ZM57.78 299.722L57.1132 298.977L57.0925 298.995L57.0729 299.015L57.78 299.722ZM58.12 318.932L58.4767 319.866L59.7317 319.387L58.9126 318.322L58.12 318.932ZM40.2242 325.477C38.3876 322.993 36.9616 319.884 35.9667 316.126L34.0333 316.638C35.0784 320.586 36.599 323.938 38.6158 326.666L40.2242 325.477ZM35.9718 316.146C35.0855 312.49 34.64 308.603 34.64 304.482L32.64 304.482C32.64 308.747 33.1012 312.794 34.0281 316.617L35.9718 316.146ZM34.64 304.482C34.64 293.769 37.3718 285.598 42.7043 279.831L41.2357 278.473C35.4615 284.718 32.64 293.435 32.64 304.482L34.64 304.482ZM42.6978 279.838C48.0057 274.205 55.864 271.312 66.45 271.312L66.45 269.312C55.5026 269.312 47.0409 272.312 41.2422 278.466L42.6978 279.838ZM66.45 271.312L104.02 271.312L104.02 269.312L66.45 269.312L66.45 271.312ZM105.02 270.312L105.02 256.202L103.02 256.202L103.02 270.312L105.02 270.312ZM104.02 257.202L124.42 257.202L124.42 255.202L104.02 255.202L104.02 257.202ZM123.42 256.202L123.42 270.312L125.42 270.312L125.42 256.202L123.42 256.202ZM124.42 271.312L146.69 271.312L146.69 269.312L124.42 269.312L124.42 271.312ZM145.69 270.312L145.69 296.832L147.69 296.832L147.69 270.312L145.69 270.312ZM146.69 295.832L124.42 295.832L124.42 297.832L146.69 297.832L146.69 295.832ZM123.42 296.832L123.42 319.612L125.42 319.612L125.42 296.832L123.42 296.832ZM124.42 318.612L104.02 318.612L104.02 320.612L124.42 320.612L124.42 318.612ZM105.02 319.612L105.02 296.832L103.02 296.832L103.02 319.612L105.02 319.612ZM104.02 295.832L66.79 295.832L66.79 297.832L104.02 297.832L104.02 295.832ZM66.79 295.832C62.774 295.832 59.5038 296.838 57.1132 298.977L58.4468 300.467C60.3629 298.753 63.0993 297.832 66.79 297.832L66.79 295.832ZM57.0729 299.015C54.8 301.288 53.72 304.402 53.72 308.222L55.72 308.222C55.72 304.788 56.68 302.236 58.4871 300.429L57.0729 299.015ZM53.72 308.222C53.72 312.606 54.9092 316.398 57.3274 319.542L58.9126 318.322C56.7974 315.572 55.72 312.224 55.72 308.222L53.72 308.222ZM57.7633 317.998L39.0633 325.138L39.7767 327.006L58.4767 319.866L57.7633 317.998ZM126.46 433.099L126.46 434.099L127.46 434.099L127.46 433.099L126.46 433.099ZM35 433.099L34 433.099L34 434.099L35 434.099L35 433.099ZM35 407.939L35 406.939L34 406.939L34 407.939L35 407.939ZM45.88 407.939L45.88 408.939L48.5172 408.939L46.543 407.19L45.88 407.939ZM36.7 395.359L35.7775 395.745L35.7813 395.754L35.7853 395.763L36.7 395.359ZM44.01 350.989L44.7228 351.69L44.7228 351.69L44.01 350.989ZM126.46 340.449L127.46 340.449L127.46 339.449L126.46 339.449L126.46 340.449ZM126.46 366.969L126.46 367.969L127.46 367.969L127.46 366.969L126.46 366.969ZM62.71 400.799L62.0233 401.526L62.0334 401.535L62.71 400.799ZM126.46 406.579L127.46 406.579L127.46 405.579L126.46 405.579L126.46 406.579ZM126.46 432.099L35 432.099L35 434.099L126.46 434.099L126.46 432.099ZM36 433.099L36 407.939L34 407.939L34 433.099L36 433.099ZM35 408.939L45.88 408.939L45.88 406.939L35 406.939L35 408.939ZM46.543 407.19C42.6846 403.773 39.7102 399.697 37.6147 394.955L35.7853 395.763C37.9964 400.767 41.142 405.078 45.2169 408.687L46.543 407.19ZM37.6224 394.973C35.6372 390.23 34.64 385.093 34.64 379.549L32.64 379.549C32.64 385.338 33.6827 390.741 35.7775 395.745L37.6224 394.973ZM34.64 379.549C34.64 367.737 38.0323 358.49 44.7228 351.69L43.2972 350.287C36.161 357.541 32.64 367.334 32.64 379.549L34.64 379.549ZM44.7228 351.69C51.3859 344.918 61.3439 341.449 74.78 341.449L74.78 339.449C61.0161 339.449 50.4607 343.006 43.2972 350.287L44.7228 351.69ZM74.78 341.449L126.46 341.449L126.46 339.449L74.78 339.449L74.78 341.449ZM125.46 340.449L125.46 366.969L127.46 366.969L127.46 340.449L125.46 340.449ZM126.46 365.969L78.69 365.969L78.69 367.969L126.46 367.969L126.46 365.969ZM78.69 365.969C71.2079 365.969 65.4101 367.533 61.4725 370.835C57.5011 374.165 55.59 379.117 55.59 385.499L57.59 385.499C57.59 379.527 59.3622 375.214 62.7575 372.368C66.1865 369.492 71.4387 367.969 78.69 367.969L78.69 365.969ZM55.59 385.499C55.59 392.081 57.7163 397.458 62.0234 401.526L63.3966 400.072C59.5437 396.433 57.59 391.61 57.59 385.499L55.59 385.499ZM62.0334 401.535C66.4776 405.619 72.9371 407.579 81.24 407.579L81.24 405.579C73.2228 405.579 67.329 403.685 63.3866 400.062L62.0334 401.535ZM81.24 407.579L126.46 407.579L126.46 405.579L81.24 405.579L81.24 407.579ZM125.46 406.579L125.46 433.099L127.46 433.099L127.46 406.579L125.46 406.579ZM117.62 527.198L116.875 526.531L116.869 526.537L117.62 527.198ZM35 538.588L34 538.588L34 539.588L35 539.588L35 538.588ZM35 513.768L35 512.768L34 512.768L34 513.768L35 513.768ZM46.39 513.768L46.39 514.768L50.0708 514.768L46.896 512.905L46.39 513.768ZM37.21 467.528L36.3038 467.105L36.3003 467.112L37.21 467.528ZM47.07 455.798L47.6142 456.637L47.6142 456.637L47.07 455.798ZM81.41 461.238L82.2083 460.635L82.2031 460.629L81.41 461.238ZM88.72 512.068L87.72 512.068L87.72 513.068L88.72 513.068L88.72 512.068ZM101.98 506.798L101.238 506.127L101.232 506.134L101.226 506.141L101.98 506.798ZM104.36 476.538L103.407 476.84L103.409 476.847L103.411 476.854L104.36 476.538ZM98.24 464.638L97.783 463.748L96.6996 464.305L97.4565 465.259L98.24 464.638ZM116.77 455.118L117.587 454.542L117.087 453.831L116.313 454.228L116.77 455.118ZM124.93 472.968L125.894 472.703L125.893 472.699L124.93 472.968ZM54.55 504.588L53.6852 505.09L53.6912 505.1L53.6974 505.11L54.55 504.588ZM63.9 512.068L63.5603 513.008L63.725 513.068L63.9 513.068L63.9 512.068ZM73.25 512.068L73.25 513.068L74.25 513.068L74.25 512.068L73.25 512.068ZM54.38 481.468L53.5925 480.851L53.5778 480.87L53.564 480.89L54.38 481.468ZM126.82 494.558C126.82 508.574 123.456 519.181 116.875 526.531L118.365 527.865C125.384 520.027 128.82 508.875 128.82 494.558L126.82 494.558ZM116.869 526.537C110.432 533.847 100.607 537.588 87.19 537.588L87.19 539.588C100.973 539.588 111.435 535.735 118.37 527.859L116.869 526.537ZM87.19 537.588L35 537.588L35 539.588L87.19 539.588L87.19 537.588ZM36 538.588L36 513.768L34 513.768L34 538.588L36 538.588ZM35 514.768L46.39 514.768L46.39 512.768L35 512.768L35 514.768ZM46.896 512.905C38.8131 508.163 34.64 499.284 34.64 485.888L32.64 485.888C32.64 499.691 36.9669 509.399 45.884 514.63L46.896 512.905ZM34.64 485.888C34.64 478.973 35.8111 473 38.1197 467.943L36.3003 467.112C33.8489 472.482 32.64 478.749 32.64 485.888L34.64 485.888ZM38.1162 467.951C40.4272 462.998 43.5973 459.242 47.6142 456.637L46.5258 454.959C42.156 457.793 38.7528 461.857 36.3038 467.105L38.1162 467.951ZM47.6142 456.637C51.6347 454.029 56.2032 452.718 61.35 452.718L61.35 450.718C55.8435 450.718 50.892 452.127 46.5258 454.959L47.6142 456.637ZM61.35 452.718C69.5617 452.718 75.946 455.764 80.6168 461.847L82.2031 460.629C77.1273 454.018 70.1383 450.718 61.35 450.718L61.35 452.718ZM80.6117 461.84C85.2931 468.046 87.72 477.702 87.72 490.988L89.72 490.988C89.72 477.527 87.2735 467.35 82.2083 460.635L80.6117 461.84ZM87.72 490.988L87.72 512.068L89.72 512.068L89.72 490.988L87.72 490.988ZM88.72 513.068C94.7138 513.068 99.4397 511.237 102.734 507.455L101.226 506.141C98.4003 509.385 94.2862 511.068 88.72 511.068L88.72 513.068ZM102.722 507.468C106.126 503.699 107.74 498.145 107.74 490.988L105.74 490.988C105.74 497.884 104.181 502.869 101.238 506.127L102.722 507.468ZM107.74 490.988C107.74 486.004 106.928 481.08 105.309 476.222L103.411 476.854C104.965 481.515 105.74 486.225 105.74 490.988L107.74 490.988ZM105.313 476.235C103.809 471.491 101.717 467.412 99.0235 464.016L97.4565 465.259C99.9765 468.437 101.964 472.291 103.407 476.84L105.313 476.235ZM98.697 465.527L117.227 456.007L116.313 454.228L97.783 463.748L98.697 465.527ZM115.953 455.694C119.39 460.572 122.065 466.414 123.967 473.236L125.893 472.699C123.941 465.695 121.177 459.637 117.587 454.542L115.953 455.694ZM123.966 473.232C125.868 480.172 126.82 487.279 126.82 494.558L128.82 494.558C128.82 487.103 127.845 479.817 125.894 472.703L123.966 473.232ZM50.49 492.518C50.49 497.207 51.5467 501.407 53.6852 505.09L55.4148 504.086C53.4733 500.742 52.49 496.896 52.49 492.518L50.49 492.518ZM53.6974 505.11C55.9759 508.828 59.279 511.462 63.5603 513.008L64.2396 511.127C60.361 509.727 57.4308 507.374 55.4026 504.065L53.6974 505.11ZM63.9 513.068L73.25 513.068L73.25 511.068L63.9 511.068L63.9 513.068ZM74.25 512.068L74.25 493.878L72.25 493.878L72.25 512.068L74.25 512.068ZM74.25 493.878C74.25 488.36 73.3505 484.048 71.4085 481.089C69.4183 478.056 66.4081 476.558 62.54 476.558L62.54 478.558C65.8119 478.558 68.1566 479.779 69.7364 482.186C71.3644 484.667 72.25 488.515 72.25 493.878L74.25 493.878ZM62.54 476.558C58.8422 476.558 55.8279 477.995 53.5925 480.851L55.1675 482.084C57.012 479.727 59.4378 478.558 62.54 478.558L62.54 476.558ZM53.564 480.89C51.4788 483.834 50.49 487.743 50.49 492.518L52.49 492.518C52.49 487.999 53.4279 484.542 55.196 482.046L53.564 480.89ZM161.14 562.59L162.14 562.59L162.14 561.59L161.14 561.59L161.14 562.59ZM161.14 589.11L161.14 590.11L162.14 590.11L162.14 589.11L161.14 589.11ZM35 589.11L34 589.11L34 590.11L35 590.11L35 589.11ZM35 562.59L35 561.59L34 561.59L34 562.59L35 562.59ZM160.14 562.59L160.14 589.11L162.14 589.11L162.14 562.59L160.14 562.59ZM161.14 588.11L35 588.11L35 590.11L161.14 590.11L161.14 588.11ZM36 589.11L36 562.59L34 562.59L34 589.11L36 589.11ZM35 563.59L161.14 563.59L161.14 561.59L35 561.59L35 563.59ZM126.46 613.722L127.46 613.722L127.46 612.722L126.46 612.722L126.46 613.722ZM126.46 640.242L126.46 641.242L127.46 641.242L127.46 640.242L126.46 640.242ZM35 640.242L34 640.242L34 641.242L35 641.242L35 640.242ZM35 613.722L35 612.722L34 612.722L34 613.722L35 613.722ZM143.46 615.082L142.726 614.403L142.726 614.403L143.46 615.082ZM164.54 615.082L163.806 615.762L163.806 615.762L164.54 615.082ZM164.71 638.882L163.963 638.218L163.963 638.218L164.71 638.882ZM143.46 638.882L142.726 639.562L142.733 639.569L142.74 639.576L143.46 638.882ZM125.46 613.722L125.46 640.242L127.46 640.242L127.46 613.722L125.46 613.722ZM126.46 639.242L35 639.242L35 641.242L126.46 641.242L126.46 639.242ZM36 640.242L36 613.722L34 613.722L34 640.242L36 640.242ZM35 614.722L126.46 614.722L126.46 612.722L35 612.722L35 614.722ZM140.21 626.982C140.21 622.316 141.56 618.606 144.194 615.762L142.726 614.403C139.693 617.679 138.21 621.902 138.21 626.982L140.21 626.982ZM144.194 615.762C146.837 612.908 150.083 611.492 154 611.492L154 609.492C149.53 609.492 145.75 611.137 142.726 614.403L144.194 615.762ZM154 611.492C157.917 611.492 161.163 612.908 163.806 615.762L165.274 614.403C162.25 611.137 158.47 609.492 154 609.492L154 611.492ZM163.806 615.762C166.44 618.606 167.79 622.316 167.79 626.982L169.79 626.982C169.79 621.902 168.307 617.679 165.274 614.403L163.806 615.762ZM167.79 626.982C167.79 631.66 166.49 635.375 163.963 638.218L165.457 639.547C168.37 636.27 169.79 632.052 169.79 626.982L167.79 626.982ZM163.963 638.218C161.432 641.065 158.303 642.472 154.51 642.472L154.51 644.472C158.877 644.472 162.548 642.819 165.457 639.547L163.963 638.218ZM154.51 642.472C150.349 642.472 146.93 641.044 144.18 638.189L142.74 639.576C145.883 642.841 149.831 644.472 154.51 644.472L154.51 642.472ZM144.194 638.203C141.56 635.359 140.21 631.649 140.21 626.982L138.21 626.982C138.21 632.062 139.693 636.286 142.726 639.562L144.194 638.203ZM39.42 723.845L38.6158 724.44L39.0672 725.05L39.7767 724.779L39.42 723.845ZM35 714.155L34.0281 714.391L34.0306 714.401L34.0333 714.411L35 714.155ZM41.97 676.925L41.2421 676.239L41.2357 676.246L41.97 676.925ZM104.02 668.085L104.02 669.085L105.02 669.085L105.02 668.085L104.02 668.085ZM104.02 653.975L104.02 652.975L103.02 652.975L103.02 653.975L104.02 653.975ZM124.42 653.975L125.42 653.975L125.42 652.975L124.42 652.975L124.42 653.975ZM124.42 668.085L123.42 668.085L123.42 669.085L124.42 669.085L124.42 668.085ZM146.69 668.085L147.69 668.085L147.69 667.085L146.69 667.085L146.69 668.085ZM146.69 694.605L146.69 695.605L147.69 695.605L147.69 694.605L146.69 694.605ZM124.42 694.605L124.42 693.605L123.42 693.605L123.42 694.605L124.42 694.605ZM124.42 717.385L124.42 718.385L125.42 718.385L125.42 717.385L124.42 717.385ZM104.02 717.385L103.02 717.385L103.02 718.385L104.02 718.385L104.02 717.385ZM104.02 694.605L105.02 694.605L105.02 693.605L104.02 693.605L104.02 694.605ZM57.78 697.495L57.1132 696.75L57.0925 696.768L57.0729 696.788L57.78 697.495ZM58.12 716.705L58.4767 717.639L59.7316 717.16L58.9126 716.096L58.12 716.705ZM40.2241 723.251C38.3876 720.766 36.9615 717.658 35.9667 713.899L34.0333 714.411C35.0784 718.359 36.599 721.711 38.6158 724.44L40.2241 723.251ZM35.9718 713.92C35.0854 710.263 34.64 706.376 34.64 702.255L32.64 702.255C32.64 706.521 33.1012 710.567 34.0281 714.391L35.9718 713.92ZM34.64 702.255C34.64 691.542 37.3717 683.372 42.7042 677.604L41.2357 676.246C35.4615 682.492 32.64 691.208 32.64 702.255L34.64 702.255ZM42.6978 677.611C48.0057 671.978 55.864 669.085 66.45 669.085L66.45 667.085C55.5026 667.085 47.0409 670.086 41.2422 676.239L42.6978 677.611ZM66.45 669.085L104.02 669.085L104.02 667.085L66.45 667.085L66.45 669.085ZM105.02 668.085L105.02 653.975L103.02 653.975L103.02 668.085L105.02 668.085ZM104.02 654.975L124.42 654.975L124.42 652.975L104.02 652.975L104.02 654.975ZM123.42 653.975L123.42 668.085L125.42 668.085L125.42 653.975L123.42 653.975ZM124.42 669.085L146.69 669.085L146.69 667.085L124.42 667.085L124.42 669.085ZM145.69 668.085L145.69 694.605L147.69 694.605L147.69 668.085L145.69 668.085ZM146.69 693.605L124.42 693.605L124.42 695.605L146.69 695.605L146.69 693.605ZM123.42 694.605L123.42 717.385L125.42 717.385L125.42 694.605L123.42 694.605ZM124.42 716.385L104.02 716.385L104.02 718.385L124.42 718.385L124.42 716.385ZM105.02 717.385L105.02 694.605L103.02 694.605L103.02 717.385L105.02 717.385ZM104.02 693.605L66.79 693.605L66.79 695.605L104.02 695.605L104.02 693.605ZM66.79 693.605C62.774 693.605 59.5037 694.611 57.1132 696.75L58.4468 698.24C60.3629 696.526 63.0993 695.605 66.79 695.605L66.79 693.605ZM57.0729 696.788C54.8 699.061 53.72 702.175 53.72 705.995L55.72 705.995C55.72 702.562 56.68 700.009 58.4871 698.202L57.0729 696.788ZM53.72 705.995C53.72 710.379 54.9092 714.171 57.3273 717.315L58.9126 716.096C56.7974 713.346 55.72 709.998 55.72 705.995L53.72 705.995ZM57.7633 715.771L39.0633 722.911L39.7767 724.779L58.4767 717.639L57.7633 715.771ZM126.46 827.852L126.068 828.772L127.46 829.364L127.46 827.852L126.46 827.852ZM29.39 786.542L29.7815 785.622L29.7706 785.617L29.7596 785.613L29.39 786.542ZM7.11997 770.902L7.94273 770.334L7.93777 770.327L7.11997 770.902ZM2.86997 734.522L3.8232 734.824L2.86997 734.522ZM8.98997 723.132L9.44677 722.242L8.7557 721.888L8.24097 722.469L8.98997 723.132ZM27.86 732.822L28.6074 733.486L29.4647 732.522L28.3168 731.932L27.86 732.822ZM23.61 739.792L22.6787 739.428L22.6761 739.434L22.6736 739.441L23.61 739.792ZM24.8 756.622L25.6 756.022L25.5906 756.01L25.5808 755.997L24.8 756.622ZM33.47 762.742L33.0638 763.656L33.0811 763.663L33.0986 763.671L33.47 762.742ZM34.32 763.082L33.9486 764.011L34.3338 764.165L34.7149 764.001L34.32 763.082ZM126.46 723.472L127.46 723.472L127.46 721.954L126.065 722.553L126.46 723.472ZM126.46 750.842L126.842 751.766L127.46 751.511L127.46 750.842L126.46 750.842ZM64.41 776.512L64.0277 775.588L61.8014 776.509L64.0255 777.435L64.41 776.512ZM126.46 802.352L127.46 802.352L127.46 801.685L126.844 801.429L126.46 802.352ZM126.852 826.932L29.7815 785.622L28.9984 787.462L126.068 828.772L126.852 826.932ZM29.7596 785.613C19.3174 781.458 12.0944 776.343 7.9427 770.334L6.29724 771.47C10.7589 777.928 18.3826 783.239 29.0203 787.471L29.7596 785.613ZM7.93777 770.327C3.76846 764.402 1.65997 757.188 1.65997 748.632L-0.340034 748.632C-0.340034 757.529 1.85814 765.162 6.30216 771.478L7.93777 770.327ZM1.65997 748.632C1.65997 743.977 2.3801 739.376 3.8232 734.824L1.91674 734.22C0.413163 738.962 -0.340034 743.767 -0.340034 748.632L1.65997 748.632ZM3.8232 734.824C5.26415 730.28 7.24409 726.615 9.73896 723.795L8.24097 722.469C5.52251 725.542 3.42245 729.471 1.91674 734.22L3.8232 734.824ZM8.53316 724.022L27.4032 733.712L28.3168 731.932L9.44677 722.242L8.53316 724.022ZM27.1126 732.158C25.2187 734.288 23.7407 736.714 22.6787 739.428L24.5412 740.156C25.5193 737.657 26.8746 735.436 28.6074 733.486L27.1126 732.158ZM22.6736 739.441C21.6163 742.26 21.08 745.043 21.08 747.782L23.08 747.782C23.08 745.308 23.5636 742.764 24.5463 740.143L22.6736 739.441ZM21.08 747.782C21.08 751.578 22.0315 754.762 24.0191 757.247L25.5808 755.997C23.9418 753.948 23.08 751.24 23.08 747.782L21.08 747.782ZM24 757.222C25.845 759.682 28.9092 761.809 33.0638 763.656L33.8761 761.828C29.8707 760.048 27.155 758.095 25.6 756.022L24 757.222ZM33.0986 763.671L33.9486 764.011L34.6914 762.154L33.8414 761.814L33.0986 763.671ZM34.7149 764.001L126.855 724.391L126.065 722.553L33.925 762.163L34.7149 764.001ZM125.46 723.472L125.46 750.842L127.46 750.842L127.46 723.472L125.46 723.472ZM126.078 749.918L64.0277 775.588L64.7922 777.436L126.842 751.766L126.078 749.918ZM64.0255 777.435L126.076 803.275L126.844 801.429L64.7944 775.589L64.0255 777.435ZM125.46 802.352L125.46 827.852L127.46 827.852L127.46 802.352L125.46 802.352Z" fill="#E6E9EE"/>
</svg>
