<svg width="33" height="33" viewBox="0 0 33 33" fill="none" xmlns="http://www.w3.org/2000/svg">
<g clip-path="url(#clip0_841_100515)">
<path d="M32.6871 8.02224L16.756 0.0567214C16.5925 -0.0215113 16.4075 -0.0215113 16.244 0.0567214L0.312931 8.02224C0.120905 8.12181 0 8.32095 0 8.53431V24.4653C0 24.6787 0.120905 24.8778 0.312931 24.9774L16.244 32.9429C16.4075 33.0212 16.5925 33.0212 16.756 32.9429L32.6871 24.9774C32.8791 24.8778 33 24.6787 33 24.4653V8.53431C33 8.32095 32.8791 8.12181 32.6871 8.02224ZM16.5 15.8668L12.055 13.6408L26.272 6.08776L31.1651 8.53431L16.5 15.8668ZM7.50323 11.3649L21.7203 3.81189L25.0203 5.46189L10.8032 13.0149L7.50323 11.3649ZM6.82759 12.2966L10.2414 14.0035V18.5339L8.93987 17.2324C8.83319 17.1257 8.69095 17.0688 8.53448 17.0688H6.82759V12.2966ZM16.5 1.20176L20.4685 3.18603L6.25151 10.739L1.84203 8.53431L16.5 1.20176ZM1.13793 9.45176L5.68965 11.7276V17.6378C5.68965 17.9507 5.94569 18.2067 6.25862 18.2067H8.29978L10.4121 20.319C10.6325 20.5395 10.9953 20.5395 11.2157 20.319C11.3224 20.2123 11.3793 20.0701 11.3793 19.9136V14.5725L15.931 16.8483V31.5063L1.13793 24.1097V9.45176ZM17.069 31.5134V16.8483L31.8621 9.45176V24.1097L17.069 31.5134Z" fill="white"/>
</g>
<defs>
<clipPath id="clip0_841_100515">
<rect width="33" height="33" fill="white"/>
</clipPath>
</defs>
</svg>
