<svg width="33" height="33" viewBox="0 0 33 33" fill="none" xmlns="http://www.w3.org/2000/svg">
<path d="M16.9004 6.38953C11.5507 6.38953 7.19558 10.7469 7.19558 16.0993C7.19558 21.4517 11.5507 25.809 16.9004 25.809C22.2501 25.809 26.6052 21.4582 26.6052 16.0993C26.6052 10.7404 22.2501 6.38953 16.9004 6.38953ZM16.9004 24.4238C12.3112 24.4238 8.58012 20.6908 8.58012 16.0993C8.58012 11.5078 12.3112 7.77478 16.9004 7.77478C21.4895 7.77478 25.2207 11.5078 25.2207 16.0993C25.2207 20.6908 21.483 24.4238 16.9004 24.4238Z" fill="white"/>
<path d="M20.5665 12.8345L15.5093 17.8943L13.2278 15.6115C12.9548 15.3384 12.5192 15.3384 12.2462 15.6115C11.9732 15.8847 11.9732 16.3204 12.2462 16.5935L15.0218 19.3706C15.1583 19.5071 15.3338 19.5722 15.5093 19.5722C15.6849 19.5722 15.8669 19.5071 15.9969 19.3706L21.5415 13.8231C21.8145 13.5499 21.8145 13.1142 21.5415 12.841C21.275 12.5679 20.8395 12.5679 20.5665 12.8345Z" fill="white"/>
<path d="M30.6743 13.8426C30.3883 13.6279 30.2973 13.2117 30.4923 12.9126C31.1683 11.833 32.1564 9.56975 28.7633 8.7373C28.4188 8.65276 28.1653 8.29506 28.2368 7.95038C28.5618 6.42856 28.1067 4.21736 25.0451 4.75715C24.6941 4.81568 24.3236 4.57505 24.2586 4.23037C24.0311 3.06624 23.0431 0.698959 20.092 2.50043C19.7865 2.68253 19.3055 2.58498 19.1625 2.31183C18.7009 1.44686 16.6989 -0.549716 14.6513 2.31183C14.4433 2.59799 13.9688 2.67603 13.7218 2.49393C12.3697 1.53791 10.1987 1.29728 9.54215 4.23037C9.46415 4.56855 9.10664 4.82219 8.75563 4.75715C7.57909 4.53603 5.00501 4.60757 5.56402 7.95038C5.62253 8.30157 5.38852 8.68528 5.03751 8.7373C3.67246 8.93891 1.55989 10.0445 3.30845 12.9061C3.49046 13.2117 3.43846 13.68 3.12645 13.8361C1.91091 14.4474 0.519861 16.6326 3.12645 18.356C3.42545 18.5511 3.49696 18.9738 3.30845 19.273C1.55989 22.141 3.66596 23.2401 5.03751 23.4418C5.38852 23.4938 5.62253 23.884 5.56402 24.2287C4.99851 27.5715 7.57909 27.643 8.75563 27.4219C9.11314 27.3569 9.47065 27.6105 9.54215 27.9487C10.1987 30.8818 12.3697 30.6411 13.7153 29.6786C13.9623 29.503 14.4368 29.5746 14.6448 29.8607C16.6924 32.7288 18.7009 30.7257 19.156 29.8607C19.299 29.5941 19.78 29.49 20.0855 29.6721C23.0366 31.4736 24.0246 29.1128 24.2521 27.9422C24.3236 27.591 24.6941 27.3504 25.0386 27.4154C28.1002 27.9552 28.5553 25.744 28.2303 24.2222C28.1588 23.8775 28.4123 23.5198 28.7568 23.4352C32.1434 22.6028 31.1618 20.3396 30.4858 19.26C30.2973 18.9608 30.3753 18.5316 30.6678 18.33C31.5779 17.7252 33.5409 15.9627 30.6743 13.8426ZM29.6863 20.7558C29.9203 21.133 29.7773 21.6598 29.2378 21.8354C28.2563 22.1606 26.4427 22.4272 26.9237 25.2953C27.0147 25.8415 26.7222 26.1667 26.0982 26.1212C25.1492 26.0497 23.1861 25.666 22.6401 28.4365C22.5296 28.9827 21.9966 29.0998 21.561 28.8852C19.6955 27.9422 18.948 27.8186 17.4789 29.6981C17.1994 30.0558 16.6144 30.0428 16.3089 29.6981C15.5223 28.8006 14.6253 27.4154 12.2267 28.8852C11.8107 29.1388 11.3362 28.9437 11.1477 28.4365C10.6667 27.1227 10.5302 25.718 7.68959 26.1212C7.25408 26.1862 6.78606 25.8871 6.86407 25.2953C7.01357 24.1636 7.18258 22.3557 4.54999 21.8354C4.14048 21.7573 3.82847 21.211 4.10148 20.7558C5.15451 19.0324 5.00501 17.9593 3.27595 16.6651C3.08094 16.522 2.76243 15.8912 3.28895 15.514C4.979 14.3043 5.15451 13.1532 4.10148 11.4298C3.82197 10.9745 4.14048 10.4347 4.54999 10.3502C7.18258 9.82989 7.01357 8.01541 6.86407 6.89031C6.78606 6.29849 7.25408 6.00583 7.68959 6.06436C10.5302 6.46758 10.6732 5.06932 11.1477 3.74911C11.3297 3.24183 11.8107 3.04673 12.2267 3.30036C14.6253 4.77016 15.5223 3.39141 16.3089 2.48743C16.6079 2.14274 17.1929 2.12973 17.4789 2.48743C18.948 4.36044 19.6955 4.24337 21.561 3.30036C21.9966 3.07925 22.5296 3.20281 22.6401 3.74911C23.1926 6.5196 25.1492 6.1359 26.0982 6.06436C26.7222 6.01883 27.0147 6.34401 26.9237 6.89031C26.4427 9.76486 28.2498 10.0315 29.2378 10.3502C29.7773 10.5258 29.9203 11.0526 29.6863 11.4298C28.1457 13.9076 29.7708 14.8896 30.4988 15.514C30.7848 15.7546 30.9473 16.3334 30.5638 16.6261C29.6928 17.2309 28.1457 18.278 29.6863 20.7558Z" fill="white"/>
</svg>
