<svg width="33" height="33" viewBox="0 0 33 33" fill="none" xmlns="http://www.w3.org/2000/svg">
<path d="M30.9162 24.5163L23.9081 17.4364C23.6673 17.206 23.2907 17.206 23.0437 17.4364L21.6544 18.8374L20.0244 17.1936L23.976 13.1898C25.6246 13.1026 27.8227 13.1088 27.9215 13.0964C28.3291 13.0341 29.1194 12.3927 31.7744 8.79367C31.8485 8.69404 31.8917 8.5695 31.8917 8.44497V6.81355C31.8917 6.59562 31.7744 6.39013 31.583 6.27805C31.3916 6.16597 31.1631 6.16597 30.9717 6.27805L28.1623 7.95928C27.9215 8.034 26.8719 8.28307 25.9704 6.99413C24.9948 5.59311 25.4332 4.92061 26.0445 4.39134C26.9645 3.7313 27.9154 3.12108 28.8971 2.56067C29.0762 2.45481 29.1935 2.26178 29.2058 2.05007C29.212 1.83836 29.1132 1.63911 28.9403 1.5208C28.8539 1.45853 26.736 0.0325989 23.1054 1.4523C20.2961 2.54821 19.9071 3.9866 19.87 4.14849L19.2711 8.40761L15.2947 12.4176L11.7506 8.83103C11.9049 8.43874 11.9852 8.02777 11.9852 7.60435C11.9852 6.72638 11.6394 5.87954 11.022 5.25686C10.9911 5.22573 10.9602 5.20082 10.9232 5.17591L4.90924 1.23437C4.66844 1.07247 4.35354 1.1036 4.14978 1.30909L1.64911 3.83093C1.44536 4.03641 1.41448 4.35398 1.57502 4.59682L5.49582 10.6492C5.52051 10.6866 5.54521 10.7177 5.57609 10.7489C6.19353 11.3715 7.02709 11.7203 7.89769 11.7203C8.31756 11.7203 8.73125 11.6393 9.11406 11.4836L12.6644 15.0765L8.31756 19.4601L4.15595 20.0579H4.11273C3.9522 20.0953 2.52589 20.4875 1.43918 23.3207C0.049923 26.9883 1.43918 29.1178 1.5071 29.205C1.62442 29.3794 1.81583 29.479 2.02576 29.4728C2.23569 29.4665 2.42092 29.3482 2.52589 29.1677C3.07542 28.1776 3.68669 27.2125 4.34119 26.2909C4.86602 25.6682 5.54521 25.2386 6.9283 26.2099C8.21259 27.1253 7.97179 28.1901 7.88534 28.4205L6.21823 31.2536C6.04535 31.5401 6.13796 31.9137 6.42199 32.088C6.51461 32.1441 6.62575 32.1752 6.73689 32.1752H8.34843C8.47192 32.1752 8.59541 32.1316 8.6942 32.0507C12.3433 29.3296 12.9237 28.545 12.9731 28.1527C12.9731 28.0655 12.9731 25.8488 13.0596 24.1925L17.4002 19.84L19.055 21.4838L17.6657 22.8849C17.4311 23.1277 17.4311 23.5138 17.6657 23.7566L24.6861 30.8302C26.3285 32.4803 28.9836 32.4803 30.626 30.8302L30.9409 30.5126C32.5833 28.8626 32.5833 26.185 30.9532 24.5349C30.947 24.5287 30.947 24.5287 30.9409 24.5225L30.9162 24.5163ZM20.2775 9.13614C20.3701 9.04274 20.4319 8.9182 20.4504 8.78744L21.0679 4.4287C21.1049 4.32907 21.5124 3.41374 23.55 2.62294C24.6985 2.11857 25.9704 1.95667 27.2053 2.16215C26.5323 2.55444 25.8778 2.99032 25.2542 3.46978C23.5809 4.91439 24.1798 6.57071 24.9701 7.71021C26.2112 9.48484 27.9215 9.39766 28.644 9.11123C28.6748 9.11123 30.6692 7.90946 30.6692 7.90946V8.25816C29.5269 9.8024 28.1562 11.5148 27.6931 11.8884C26.8966 11.8448 24.6738 11.9569 23.6735 12.0129C23.5253 12.0191 23.3833 12.0814 23.2722 12.1935L19.16 16.3218L18.1165 15.2695L22.0867 11.2532C22.346 11.0353 22.3769 10.6492 22.1607 10.3877C21.9446 10.1262 21.5618 10.0951 21.3025 10.313C21.2778 10.3379 21.2469 10.3628 21.2284 10.3877L17.252 14.3978L16.1653 13.2894L20.2775 9.13614ZM7.89152 10.4936C7.36051 10.4936 6.8542 10.2943 6.47139 9.92694L2.85931 4.34775L4.65609 2.53576L10.1884 6.18465C10.9541 7.01281 10.9355 8.29552 10.1452 9.09878L9.3487 9.90203C8.9597 10.2943 8.43487 10.5123 7.88534 10.5123L7.89152 10.4936ZM12.0408 23.5013C11.9358 23.6072 11.8679 23.7504 11.8617 23.8998C11.8061 24.9086 11.7012 27.1502 11.7444 27.9534C11.3678 28.4205 9.65742 29.809 8.1385 30.961H7.79273C7.79273 30.961 8.97205 28.956 8.99675 28.9186C9.29312 28.1838 9.37957 26.4652 7.60749 25.2137C6.47756 24.4166 4.82897 23.8126 3.40267 25.5001C2.93341 26.129 2.50119 26.7828 2.10603 27.4678C1.90227 26.2162 2.0628 24.9397 2.56911 23.7815C3.35945 21.708 4.27327 21.3282 4.35971 21.2783L8.70037 20.6557C8.83004 20.637 8.95353 20.5809 9.04614 20.4813L13.535 15.9482L14.6279 17.0504L10.2378 21.4776C10.0032 21.7142 9.99701 22.094 10.2316 22.3369L10.2378 22.3431C10.4725 22.5797 10.8491 22.586 11.0899 22.3493L15.4861 17.9159L16.5296 18.9682L12.0408 23.5013ZM10.1576 10.8049L10.2193 10.7489L11.0096 9.95185L11.0652 9.88958L20.79 19.6967L19.8824 20.6121L10.1576 10.8049ZM30.0579 29.6534L29.743 29.9771C28.576 31.1478 26.6866 31.1478 25.5197 29.9771L18.9377 23.3207L20.3269 21.9197L22.099 20.1388L23.4883 18.7378L30.0888 25.388C31.2496 26.5649 31.2434 28.4703 30.0764 29.6409C30.0703 29.6471 30.0641 29.6534 30.0579 29.6534Z" fill="white"/>
<path d="M23.1054 22.0819C22.8707 21.8453 22.4941 21.839 22.2533 22.0757L22.2471 22.0819C22.0125 22.3185 22.0125 22.7108 22.2471 22.9474L27.4584 28.2028C27.6992 28.4456 28.082 28.4456 28.3228 28.2028C28.5636 27.96 28.5636 27.5739 28.3228 27.3311L23.1054 22.0819Z" fill="white"/>
</svg>
