<svg width="33" height="33" viewBox="0 0 33 33" fill="none" xmlns="http://www.w3.org/2000/svg">
<path d="M11.0451 29.0366C11.3772 29.0366 11.6464 28.7776 11.6464 28.4582C11.6464 28.1388 11.3772 27.8798 11.0451 27.8798C10.7131 27.8798 10.4439 28.1388 10.4439 28.4582C10.4439 28.7776 10.7131 29.0366 11.0451 29.0366Z" fill="white"/>
<path d="M30.8857 18.6254C30.8857 17.3457 29.811 16.3118 28.4808 16.3118H21.8673V11.6846C21.8673 10.752 21.5441 10.0145 20.9128 9.50118C19.6577 8.48175 17.6436 8.78541 17.561 8.79987C17.2679 8.84325 17.0574 9.08907 17.0574 9.37104V13.2825L15.4867 16.3118H1.42545C1.09477 16.3118 0.824219 16.5721 0.824219 16.8902C0.824219 17.2083 1.09477 17.4686 1.42545 17.4686H8.03898V29.0366H1.42545C1.09477 29.0366 0.824219 29.2969 0.824219 29.615C0.824219 29.9331 1.09477 30.1934 1.42545 30.1934H8.03898V30.7718C8.03898 31.0899 8.30953 31.3502 8.64021 31.3502H13.45C13.7807 31.3502 14.0513 31.0899 14.0513 30.7718V30.1934L15.4942 31.2345C15.5994 31.3068 15.7272 31.3502 15.855 31.3502H26.6771C28.0073 31.3502 29.082 30.3163 29.082 29.0366C29.082 28.4944 28.8791 27.9593 28.5184 27.5472C29.6532 26.8893 30.0214 25.4722 29.3451 24.3805C29.2774 24.272 29.2023 24.1708 29.1196 24.0768C30.2544 23.4189 30.6227 22.0018 29.9463 20.9101C29.8787 20.8016 29.8035 20.7004 29.7208 20.6064C30.4423 20.1871 30.8857 19.4352 30.8857 18.6254ZM12.8488 30.1934H9.24144V17.4686H12.8488V30.1934ZM26.6771 30.1934H16.0579L14.0513 28.7474V17.4686H15.855C16.0804 17.4686 16.2909 17.3457 16.3961 17.1505L18.1998 13.6801C18.2449 13.6006 18.2599 13.5138 18.2599 13.4198V9.90606C18.8311 9.89883 19.6427 9.97836 20.1387 10.3905C20.492 10.6797 20.6648 11.1062 20.6648 11.6919V16.9119C20.6648 17.23 20.9278 17.4903 21.266 17.4903C21.3111 17.4903 21.3637 17.4831 21.4088 17.4759H28.4808C29.1422 17.4759 29.6833 17.9964 29.6833 18.6327C29.6833 19.2689 29.1422 19.7894 28.4808 19.7894H24.8734C24.5427 19.7894 24.2722 20.0497 24.2722 20.3678C24.2722 20.686 24.5427 20.9462 24.8734 20.9462H27.8796C28.5409 20.9462 29.082 21.4668 29.082 22.103C29.082 22.7393 28.5409 23.2598 27.8796 23.2598H24.8734C24.5427 23.2598 24.2722 23.5201 24.2722 23.8382C24.2722 24.1564 24.5427 24.4166 24.8734 24.4166H27.2783C27.9397 24.4166 28.4808 24.9372 28.4808 25.5734C28.4808 26.2097 27.9397 26.7302 27.2783 26.7302H24.8734C24.5427 26.7302 24.2722 26.9905 24.2722 27.3086C24.2722 27.6267 24.5427 27.887 24.8734 27.887H26.6771C27.3385 27.887 27.8796 28.4076 27.8796 29.0438C27.8796 29.6801 27.3385 30.1934 26.6771 30.1934Z" fill="white"/>
<path d="M11.0451 29.0366C11.3772 29.0366 11.6464 28.7776 11.6464 28.4582C11.6464 28.1388 11.3772 27.8798 11.0451 27.8798C10.7131 27.8798 10.4439 28.1388 10.4439 28.4582C10.4439 28.7776 10.7131 29.0366 11.0451 29.0366Z" fill="white"/>
<path d="M31.9153 9.54456L30.6076 8.62635L30.6527 7.0719C30.6603 6.75378 30.3972 6.48627 30.0665 6.47904C29.9313 6.47904 29.8035 6.51519 29.6983 6.58749L28.3906 7.5057L26.865 6.98514C26.5493 6.87669 26.2112 7.03575 26.0984 7.33941C26.0533 7.46232 26.0533 7.59246 26.0909 7.70814L26.5869 9.19029L25.6024 10.4266C25.3995 10.6797 25.4521 11.0412 25.7151 11.2364C25.8204 11.3159 25.9481 11.3521 26.0834 11.3521H27.6992L28.6161 12.639C28.804 12.8993 29.1797 12.9716 29.4503 12.7908C29.563 12.7185 29.6382 12.6173 29.6833 12.4944L30.1868 11.0122L31.7425 10.5712C32.0581 10.4772 32.246 10.1591 32.1483 9.85545C32.1032 9.72531 32.0205 9.61686 31.9153 9.54456ZM29.5329 9.98559C29.3451 10.0362 29.1948 10.1808 29.1346 10.3615L28.9092 11.0195L28.5033 10.4483C28.3906 10.2892 28.2027 10.1953 28.0073 10.1953H27.2934L27.7293 9.64578C27.8495 9.49395 27.8871 9.29874 27.827 9.11799L27.609 8.46006L28.2854 8.69142C28.4733 8.75649 28.6762 8.72757 28.8415 8.61189L29.4202 8.20701L29.4052 8.89386C29.3977 9.08184 29.4954 9.26259 29.6532 9.37827L30.2319 9.78315L29.5329 9.98559Z" fill="white"/>
<path d="M16.832 4.84507L16.5614 6.37782C16.5088 6.69594 16.7268 6.99237 17.0499 7.04298C17.1777 7.06467 17.313 7.04298 17.4332 6.98514L18.8686 6.26214L20.3041 6.98514C20.5972 7.13697 20.9579 7.02129 21.1157 6.73932C21.1759 6.62364 21.1984 6.50073 21.1759 6.37059L20.8978 4.83784L22.0552 3.74611C22.2956 3.52198 22.2956 3.15325 22.0627 2.92912C21.9725 2.83513 21.8522 2.77729 21.717 2.76283L20.1162 2.5387L19.3947 1.14331C19.297 0.948105 19.0866 0.825195 18.8611 0.825195C18.6357 0.825195 18.4252 0.948105 18.32 1.15054L17.6061 2.54593L16.0053 2.77006C15.6746 2.81344 15.4491 3.10987 15.4942 3.42799C15.5168 3.5509 15.5769 3.67381 15.6671 3.76057L16.832 4.84507ZM18.0945 3.64489C18.2899 3.61597 18.4628 3.50029 18.5455 3.32677L18.8611 2.70499L19.1768 3.32677C19.2669 3.50029 19.4323 3.61597 19.6277 3.64489L20.3341 3.74611L19.8231 4.23052C19.6803 4.36066 19.6202 4.55587 19.6502 4.74385L19.7705 5.42347L19.1317 5.10535C18.9588 5.01859 18.7484 5.01859 18.5755 5.10535L17.9442 5.42347L18.0645 4.74385C18.0945 4.55587 18.0344 4.36789 17.8916 4.23052L17.3806 3.74611L18.0945 3.64489Z" fill="white"/>
<path d="M5.98728 10.5712L7.54296 11.0122L8.04649 12.4944C8.15171 12.7981 8.4899 12.9643 8.80555 12.8631C8.93331 12.827 9.03852 12.7474 9.11368 12.639L10.0306 11.3521H11.6539C11.9846 11.3521 12.2551 11.0918 12.2551 10.7737C12.2551 10.6435 12.21 10.5206 12.1273 10.4194L11.1428 9.18306L11.6388 7.70091C11.7441 7.39725 11.5712 7.0719 11.2556 6.97068C11.1278 6.93453 10.9925 6.93453 10.8723 6.97791L9.34665 7.49847L8.02395 6.58749C7.75339 6.39951 7.37763 6.45735 7.18223 6.71763C7.10707 6.81885 7.06198 6.94176 7.06949 7.0719L7.11459 8.62635L5.80691 9.54456C5.53636 9.73254 5.47624 10.094 5.67164 10.3543C5.7543 10.4555 5.85952 10.5351 5.98728 10.5712ZM8.07656 9.3855C8.23438 9.27705 8.33208 9.0963 8.32456 8.90109L8.30953 8.21424L8.88822 8.61912C9.04604 8.72757 9.25647 8.75649 9.44435 8.69865L10.1207 8.46729L9.90279 9.12522C9.84267 9.30597 9.88025 9.50118 10.0005 9.65301L10.4364 10.2025H9.72242C9.52702 10.2025 9.33914 10.2965 9.22641 10.4555L8.82058 11.0267L8.59512 10.3688C8.53499 10.188 8.38469 10.0507 8.1968 9.99282L7.50539 9.79761L8.07656 9.3855Z" fill="white"/>
</svg>
