<svg width="35" height="35" viewBox="0 0 35 35" fill="none" xmlns="http://www.w3.org/2000/svg">
<path d="M33.6331 24.3379C32.995 23.4082 31.9181 23.1758 30.7481 23.727L30.1299 23.9992C31.1071 21.9141 31.2267 19.5965 30.7414 17.4051C30.183 14.8883 26.0161 9.03125 24.4194 7.96875C24.1882 7.81493 24.0987 7.80939 23.8926 7.99532C23.6865 8.18126 23.6732 8.49337 23.8594 8.69923C25.8403 10.8641 29.2457 15.2734 29.7642 17.6176C30.3093 20.0879 29.9969 22.6313 28.5943 24.6699L22.392 27.3992L22.3987 26.702C22.3987 26.682 22.3987 26.6688 22.3987 26.6488C22.2524 25.2078 21.1556 24.0656 19.7197 23.8598C19.713 23.8598 19.713 23.8598 19.7064 23.8598L14.1889 23.2223C12.0683 22.9234 11.5232 21.6484 8.65141 20.9246C8.45198 19.2445 8.71788 17.4516 9.44247 15.6586C10.5327 12.9559 12.6732 10.3262 15.6314 8.04181C16.7349 8.8254 21.6608 8.91837 22.7643 7.91564C23.3293 8.34064 23.8175 8.76469 24.3161 9.20961C24.4092 9.29594 24.5791 9.35665 24.6988 9.35665C24.8384 9.35665 24.9713 9.30353 25.071 9.19064C25.2572 8.98478 25.2372 8.67267 25.0311 8.48673C24.4794 7.99533 23.8877 7.5172 23.2695 7.04572C23.4158 6.42814 23.2097 5.71095 22.6712 5.27931C24.2334 2.91525 24.6855 1.36799 24.0606 0.55783C23.6285 1.83024e-05 23.0967 0.259003 22.864 0.371893C22.4784 0.55783 22.2657 0.571112 21.9068 0.33869C21.2287 -0.106232 20.5108 -0.119513 19.8061 0.33869C19.4471 0.577752 19.1613 0.577752 18.7957 0.33869C18.1176 -0.106232 17.3997 -0.119513 16.695 0.33869C16.3361 0.577752 16.1233 0.55783 15.7378 0.371893C15.5117 0.259003 14.9733 -0.00662228 14.5412 0.55119C13.9296 1.34142 14.3351 2.83556 15.7909 5.11994C15.7045 5.16642 15.6181 5.22619 15.5383 5.28595C14.96 4.67502 14.0094 4.03752 12.64 4.19025C11.5032 4.31642 10.6656 3.94455 10.1604 3.60588C9.9344 3.45314 9.62196 3.51291 9.46906 3.74533C9.31617 3.97111 9.376 4.28322 9.60866 4.43595C10.2535 4.86759 11.3171 5.34572 12.753 5.18634C13.81 5.06681 14.5345 5.61134 14.9799 6.15587C14.9733 6.1758 14.9666 6.19572 14.96 6.22228C14.5811 6.22892 14.0094 6.26212 13.3779 6.39494C11.8689 6.70705 10.7454 7.42423 10.1338 8.46681C9.99422 8.70587 10.074 9.01134 10.3133 9.15079C10.5526 9.29025 10.8584 9.21056 10.998 8.9715C11.9087 7.41759 14.129 7.23165 15.0065 7.21837C15.0132 7.23165 15.0132 7.23829 15.0198 7.25158C11.8755 9.6754 9.68843 12.3781 8.51181 15.2867C7.76727 17.1262 7.47478 18.9723 7.62103 20.7254C7.1424 20.6523 6.65712 20.6191 6.17185 20.6125V20.3137C6.17185 19.5168 5.52038 18.866 4.72267 18.866H2.44918C1.65147 18.866 1 19.5168 1 20.3137V31.9082C1 32.7051 1.65147 33.3559 2.44918 33.3559H4.73596C5.53367 33.3559 6.18514 32.7051 6.18514 31.9082V31.7687L11.1775 33.6215C11.8489 33.8738 12.5536 34 13.2649 34H20.7035C21.8403 34 22.9504 33.6812 23.9077 33.0703C33.8326 26.7883 33.2276 27.1801 33.2875 27.127C34.0852 26.4164 34.2314 25.2211 33.6331 24.3379ZM21.827 7.32462C20.0055 7.78283 18.2306 7.78283 16.4092 7.32462C15.6248 7.1254 15.8508 5.73087 16.695 5.94337C18.3237 6.35509 19.9125 6.35509 21.5411 5.94337C22.3654 5.73751 22.618 7.1254 21.827 7.32462ZM15.2924 1.2551C15.299 1.2551 15.299 1.26174 15.3057 1.26174C15.9771 1.59377 16.5687 1.61369 17.2534 1.16877C18.1043 0.610956 18.1974 1.5008 19.3075 1.5008C19.846 1.5008 20.1385 1.30822 20.3579 1.16877C20.7168 0.929705 21.0027 0.929705 21.3683 1.16877C22.053 1.61369 22.6247 1.59377 23.3227 1.2551C23.4224 1.62697 23.1964 2.72267 21.714 4.92072C20.9827 4.90744 19.9125 5.63126 16.9011 4.96056C15.4187 2.74259 15.1927 1.62697 15.2924 1.2551ZM32.6493 26.3566L23.3759 32.227C22.5782 32.7316 21.6541 33.0039 20.7035 33.0039H13.2649C12.6666 33.0039 12.0816 32.8977 11.5232 32.6918L6.18514 30.7062V25.3406C6.18514 25.0684 5.95912 24.8426 5.68657 24.8426C5.41402 24.8426 5.188 25.0684 5.188 25.3406V31.9082C5.188 32.1539 4.98857 32.3598 4.73596 32.3598H2.44918C2.20322 32.3598 1.99714 32.1605 1.99714 31.9082V20.3137C1.99714 20.068 2.19657 19.8621 2.44918 19.8621H4.73596C4.98192 19.8621 5.188 20.0613 5.188 20.3137V25.1414C5.188 25.4137 5.41402 25.6395 5.68657 25.6395C5.95912 25.6395 6.18514 25.4137 6.18514 25.1414V21.6086C10.3067 21.6418 11.2373 23.8133 14.0626 24.2117C14.0692 24.2117 14.0692 24.2117 14.0759 24.2117L19.5934 24.8492C20.5573 24.9887 21.3018 25.759 21.4082 26.7219L21.4015 27.6715H16.2563C15.9837 27.6715 15.7577 27.8973 15.7577 28.1695C15.7577 28.4418 15.9837 28.6676 16.2563 28.6676H21.8935C21.9533 28.6676 22.0264 28.6543 22.0929 28.6277C22.1062 28.6211 31.1536 24.6434 31.1602 24.6367C31.8117 24.3445 32.41 24.3047 32.8088 24.8957C33.1213 25.3539 33.0482 25.9781 32.6493 26.3566Z" fill="#0095D9"/>
<path d="M19.2477 22.5914C19.5203 22.5914 19.7463 22.3656 19.7463 22.0934V21.2699C21.1489 21.0441 21.9599 19.9086 22.1394 18.8527C22.3588 17.5313 21.6674 16.3891 20.3778 15.9309C20.1518 15.8512 19.9391 15.7715 19.7463 15.6984V12.5242C20.3379 12.6238 20.6902 12.9293 20.7168 12.9492C20.9163 13.1352 21.2353 13.1219 21.4215 12.916C21.6076 12.7168 21.5943 12.3981 21.3949 12.2121C21.3616 12.1789 20.7501 11.6277 19.7529 11.5149V10.8043C19.7529 10.532 19.5269 10.3063 19.2544 10.3063C18.9818 10.3063 18.7558 10.532 18.7558 10.8043V11.5547C18.6361 11.5746 18.5098 11.6078 18.3835 11.6477C17.5393 11.9 16.9077 12.6238 16.7349 13.5402C16.582 14.3703 16.8413 15.1606 17.4196 15.6188C17.752 15.8777 18.1708 16.1168 18.7558 16.3691V20.307C18.1774 20.2805 17.8251 20.1742 17.2069 19.7691C16.9742 19.6164 16.6684 19.6828 16.5155 19.9152C16.3626 20.1477 16.4291 20.4531 16.6618 20.6059C17.4728 21.1371 18.0179 21.2766 18.7558 21.3031V22.0934C18.7491 22.3723 18.9752 22.5914 19.2477 22.5914ZM18.0312 14.8352C17.7453 14.6094 17.6257 14.1844 17.7121 13.7262C17.7919 13.3012 18.0844 12.7832 18.6694 12.6039C18.696 12.5973 18.7225 12.5906 18.7491 12.584V15.2734C18.45 15.1207 18.2173 14.9813 18.0312 14.8352ZM20.0454 16.8738C21.2885 17.3121 21.2088 18.3746 21.1556 18.6934C21.0426 19.3441 20.5639 20.0414 19.7463 20.2539V16.7676C19.846 16.8008 19.9457 16.834 20.0454 16.8738Z" fill="#0095D9"/>
</svg>
