<svg width="35" height="35" viewBox="0 0 35 35" fill="none" xmlns="http://www.w3.org/2000/svg">
<path d="M34.8973 18.0223L31.0619 7.12594C30.9115 6.69297 30.6106 6.35381 30.2073 6.15897C29.8107 5.96414 29.3664 5.9497 28.9561 6.10846L26.3924 7.1115C25.5514 7.44345 25.1139 8.43928 25.4284 9.33408L25.4694 9.44954C24.8609 9.69488 24.1841 9.42789 23.1449 8.96605C21.5998 8.28052 19.5009 7.36407 16.8346 9.12481C14.681 7.71044 12.9855 8.05682 11.4814 8.37433C10.7157 8.53309 9.99097 8.68462 9.23893 8.60525C9.21842 8.39598 9.16372 8.19393 9.06801 7.99909C8.86974 7.58777 8.52791 7.28469 8.1177 7.14037L5.51289 6.25278C5.09585 6.10846 4.6583 6.15176 4.2686 6.36102C3.87891 6.57029 3.59176 6.9311 3.45503 7.36407L0.0776702 18.4264C-0.1958 19.3284 0.275936 20.3098 1.13053 20.5985L3.73534 21.4861C3.89942 21.5438 4.07034 21.5727 4.23442 21.5727C4.48738 21.5727 4.74718 21.5077 4.97963 21.3778C5.1232 21.2985 5.2531 21.1974 5.36249 21.082C5.37616 21.1686 5.40351 21.2479 5.41718 21.3345L4.76769 22.619C4.48738 23.1747 4.43269 23.8385 4.61728 24.4591C4.79503 25.0581 5.17789 25.5343 5.67698 25.8013C6.11453 26.0467 6.5931 26.1261 7.04433 26.0539C6.91443 26.5085 6.91443 27.0064 7.058 27.4755C7.23576 28.0744 7.61862 28.5507 8.1177 28.8177C8.63729 29.1135 9.23893 29.1713 9.81322 28.9909C10.0388 28.9187 10.2508 28.8105 10.4422 28.6734C10.6268 29.2651 11.0028 29.7341 11.4951 29.9939C12.0147 30.2898 12.6163 30.3475 13.1906 30.1671C13.3205 30.1238 13.4367 30.0733 13.5529 30.0156C13.7238 30.7444 14.2161 31.3866 14.8246 31.733C15.1185 31.899 15.4604 32 15.8159 32C16.4654 32 17.1559 31.6464 17.655 30.665L17.7507 30.4702C17.7917 30.4918 17.8259 30.5135 17.8601 30.5279L18.1199 30.6722C18.4412 30.8454 18.7489 30.9248 19.0428 30.9248C19.7744 30.9248 20.3897 30.4485 20.7042 29.8207C20.923 29.3878 20.9982 28.8682 20.8888 28.3703C21.1554 28.3847 21.422 28.3486 21.6818 28.2693C22.2698 28.0816 22.7484 27.6703 23.0355 27.1002C23.268 26.6456 23.35 26.1261 23.2816 25.6209C23.7739 25.8374 24.314 25.8663 24.8267 25.7003C25.4147 25.5127 25.9001 25.0941 26.1941 24.5241C26.4334 24.055 26.5154 23.5355 26.4402 23.0159C27.2401 23.3551 28.0058 23.1963 28.5459 22.5829C29.086 21.9551 29.2706 20.9954 29.0655 20.1367C29.1066 20.1222 29.1476 20.1078 29.1954 20.0861H29.2023L29.257 20.2449C29.5031 20.9376 30.1252 21.3706 30.7884 21.3706C30.9798 21.3706 31.1713 21.3345 31.3558 21.2624L33.9196 20.2593C34.7811 19.913 35.2118 18.9171 34.8973 18.0223ZM4.89075 20.0717C4.83605 20.2521 4.71299 20.4036 4.54891 20.4975C4.38483 20.5841 4.20024 20.6057 4.02248 20.5408L1.41768 19.6532C1.05533 19.5305 0.857061 19.1192 0.973286 18.7367L4.35748 7.67436C4.41218 7.49396 4.53524 7.34242 4.69932 7.24861C4.80187 7.1981 4.90442 7.16923 5.01381 7.16923C5.08218 7.16923 5.15738 7.18367 5.22575 7.20531L7.83056 8.0929C8.00148 8.15063 8.14505 8.28052 8.23392 8.45371C8.31597 8.62689 8.33648 8.82173 8.27495 9.00935L5.57443 17.8419C5.56075 17.8636 5.55391 17.8924 5.54024 17.9141C5.51973 17.9935 5.49922 18.0728 5.47871 18.145L4.89075 20.0717ZM6.12137 24.9137C5.84106 24.7622 5.62912 24.4952 5.52657 24.156C5.41718 23.7952 5.44453 23.4056 5.60861 23.0953L6.34698 21.6376L6.69565 20.9376C7.02382 20.2882 7.7827 20.0428 8.39801 20.3676C8.80138 20.6634 9.40985 21.2985 8.95179 22.2077L8.69882 22.7056L7.8579 24.3653C7.52974 25.022 6.75035 25.2673 6.12137 24.9137ZM10.3055 27.3817C10.1482 27.6992 9.87475 27.9301 9.54658 28.0383C9.21842 28.1466 8.86974 28.1105 8.56209 27.9301C8.28178 27.7786 8.06984 27.5116 7.96729 27.1724C7.8579 26.8116 7.88525 26.4219 8.04933 26.1116L9.53291 23.1819C9.69016 22.8644 9.96363 22.6334 10.2918 22.5324C10.62 22.4242 10.9686 22.4603 11.2626 22.6334C11.5634 22.7994 11.7822 23.0881 11.8779 23.4344C11.9805 23.7808 11.9463 24.1488 11.7822 24.4591L11.5498 24.9282L10.5926 26.8188L10.3055 27.3817ZM12.9239 29.2073C12.5958 29.3156 12.2471 29.2795 11.9394 29.0991C11.6591 28.9476 11.4472 28.6806 11.3447 28.3414C11.2353 27.9806 11.2626 27.5981 11.4267 27.2806L12.3838 25.39C12.5411 25.0725 12.8146 24.8416 13.1427 24.7406C13.4709 24.6323 13.8196 24.6684 14.1135 24.8416C14.7357 25.1952 14.9681 26.0106 14.64 26.6673L13.6828 28.5579C13.5256 28.8682 13.2521 29.1063 12.9239 29.2073ZM15.2826 30.8454C14.6605 30.4918 14.2161 29.6187 14.5716 28.9187L14.9955 28.0816C15.1596 27.7569 15.4535 27.4971 15.8022 27.3672C16.1509 27.2373 16.4996 27.2518 16.7867 27.4177C17.4089 27.7713 17.5114 28.0744 17.5319 28.2765C17.5661 28.5795 17.443 28.9836 17.1354 29.5826L16.8277 30.196C16.3013 31.2279 15.6313 31.0475 15.2826 30.8454ZM19.8769 29.3517C19.6513 29.7991 19.1591 30.1094 18.5643 29.7846L18.3113 29.6475C18.2703 29.6259 18.2293 29.6042 18.1951 29.5826C18.3865 29.1352 18.5232 28.6445 18.4754 28.161C18.4207 27.6126 18.1336 27.158 17.6071 26.7755L19.4667 27.8291C20.0889 28.2909 20.0889 28.9259 19.8769 29.3517ZM27.8486 21.8974C27.5409 22.251 27.1239 22.2798 26.6043 21.984L25.2575 21.2263C25.2438 21.2191 25.2301 21.2119 25.2164 21.2046L20.8683 18.7151C20.6358 18.5852 20.3487 18.6718 20.2256 18.9171C20.1025 19.1625 20.1846 19.4655 20.417 19.5954L24.8609 22.1427C25.1549 22.3231 25.3737 22.6118 25.4762 22.9582C25.5788 23.3262 25.5446 23.7159 25.3737 24.0478C25.2028 24.387 24.9156 24.6323 24.5669 24.7406C24.2183 24.8488 23.8491 24.8127 23.5346 24.6323L22.1946 23.8746C22.1741 23.853 22.1467 23.8385 22.1194 23.8241L18.8788 21.9984C18.6463 21.8685 18.3592 21.9623 18.2361 22.2005C18.113 22.4458 18.2019 22.7489 18.4275 22.8788L21.5861 24.6612C21.6066 24.6828 21.634 24.6973 21.6613 24.7189C21.9758 24.8993 22.2083 25.1952 22.3108 25.556C22.4134 25.9168 22.3792 26.2992 22.2151 26.6312C22.0442 26.9631 21.7639 27.2085 21.422 27.3167C21.0802 27.425 20.7178 27.3889 20.4034 27.2157L19.7197 26.826C19.6855 26.8044 19.6513 26.7972 19.6103 26.7827L16.8482 25.2168C16.6158 25.0869 16.3286 25.1807 16.2056 25.4189C16.0825 25.6642 16.1714 25.9673 16.397 26.0972L16.9781 26.4291C16.5816 26.2776 16.1509 26.2487 15.7202 26.357C15.8432 25.4117 15.4057 24.4447 14.5648 23.9684C14.0452 23.6798 13.4504 23.6148 12.8898 23.788C12.8829 23.5715 12.8556 23.3551 12.794 23.1458C12.6231 22.5468 12.2403 22.0489 11.7138 21.7531C11.1874 21.4572 10.5994 21.4067 10.0662 21.5654C10.0593 20.7139 9.54658 20.014 8.93811 19.5594C8.9176 19.5449 8.89709 19.5305 8.86974 19.5161C7.96045 19.0037 6.86657 19.2274 6.19657 19.9851C6.1829 19.4655 6.25126 18.946 6.388 18.4336L9.08852 9.59386C9.99781 9.7021 10.8456 9.52891 11.666 9.35573C13.0265 9.06708 14.3255 8.80008 15.9936 9.75983C15.6313 10.0629 15.2621 10.4165 14.8998 10.8062C14.6126 11.1165 14.3118 11.4195 14.0247 11.7226C12.9718 12.8195 12.0557 13.7576 11.7959 14.4287C11.7343 14.5874 11.7549 14.7751 11.8506 14.9194C13.7307 17.5894 16.0142 16.6873 17.8464 15.9585C19.2206 15.4101 20.4102 14.941 21.3537 15.7276C21.3742 15.742 21.3879 15.7564 21.4084 15.7709C21.8596 16.0451 22.4817 16.3698 23.1996 16.7451C24.943 17.6543 27.3222 18.8955 27.9375 19.8841C28.3682 20.5408 28.2314 21.4572 27.8486 21.8974ZM28.669 19.2202C27.8418 18.0368 25.5173 16.8244 23.6303 15.843C22.9398 15.4822 22.345 15.1719 21.9211 14.9194C20.5606 13.8153 19.0155 14.4287 17.5251 15.0204C15.7544 15.7276 14.2161 16.3337 12.8077 14.5658C13.1359 14.0462 13.9289 13.2236 14.6947 12.4298C14.9886 12.1267 15.2895 11.8164 15.5766 11.5061C16.0825 10.9649 16.5884 10.5175 17.0807 10.1567C19.4667 8.42484 21.2306 9.20419 22.7894 9.89694C23.5209 10.2217 24.2593 10.5464 24.9977 10.5464C25.2711 10.5464 25.5378 10.4959 25.8044 10.3876L28.8878 19.1408C28.8126 19.1697 28.7374 19.1986 28.669 19.2202ZM33.6051 19.3068L31.0345 20.3098C30.679 20.4469 30.2825 20.2593 30.1457 19.8841L26.3172 8.9877C26.2556 8.8073 26.2625 8.61246 26.3377 8.43206C26.4129 8.25166 26.5496 8.12176 26.7205 8.0496L29.2843 7.04656C29.3595 7.01769 29.4416 7.00326 29.5236 7.00326C29.6193 7.00326 29.7219 7.02491 29.8107 7.06821C29.9817 7.14758 30.1047 7.29191 30.1731 7.47231L34.0085 18.3687C34.1452 18.7439 33.9607 19.1697 33.6051 19.3068Z" fill="#0095D9"/>
</svg>
