<svg width="35" height="35" viewBox="0 0 35 35" fill="none" xmlns="http://www.w3.org/2000/svg">
<path d="M17.9965 22.3463H25.9919C26.2906 22.3463 26.4897 22.143 26.4897 21.8381V17.2459C26.4897 16.9409 26.2906 16.7376 25.9919 16.7376H17.9965C17.6978 16.7376 17.4986 16.9409 17.4986 17.2459V21.8381C17.4928 22.143 17.6919 22.3463 17.9965 22.3463ZM18.4944 17.7541H25.494V21.3238H18.4944V17.7541Z" fill="#0095D9"/>
<path d="M4.5011 15.7151H8.5017C8.80043 15.7151 8.99958 15.5118 8.99958 15.2069C8.99958 14.9019 8.80043 14.6986 8.5017 14.6986H4.5011C4.20238 14.6986 4.00323 14.9019 4.00323 15.2069C4.00323 15.5118 4.19652 15.7151 4.5011 15.7151Z" fill="#0095D9"/>
<path d="M10.4991 15.7151H14.4997C14.7984 15.7151 14.9975 15.5118 14.9975 15.2069C14.9975 14.9019 14.7984 14.6986 14.4997 14.6986H10.4991C10.2003 14.6986 10.0012 14.9019 10.0012 15.2069C10.0012 15.5118 10.1945 15.7151 10.4991 15.7151Z" fill="#0095D9"/>
<path d="M4.5011 17.7541H10.9969C11.2957 17.7541 11.4948 17.5508 11.4948 17.2459C11.4948 16.9409 11.2957 16.7376 10.9969 16.7376H4.5011C4.20238 16.7376 4.00323 16.9409 4.00323 17.2459C4.00323 17.5508 4.19652 17.7541 4.5011 17.7541Z" fill="#0095D9"/>
<path d="M14.4938 16.7376H12.9943C12.6956 16.7376 12.4964 16.9409 12.4964 17.2459C12.4964 17.5508 12.6956 17.7541 12.9943 17.7541H14.4938C14.7925 17.7541 14.9917 17.5508 14.9917 17.2459C14.9917 16.9409 14.7984 16.7376 14.4938 16.7376Z" fill="#0095D9"/>
<path d="M31.5388 10.4114C31.1874 9.95097 30.7363 9.69983 30.1916 9.64602L28.9908 9.49653V7.03899C28.9908 5.91485 28.0888 5 26.9935 5H3.99737C2.90204 5 2 5.92083 2 7.03899V23.3688C2 24.2896 2.60917 25.0729 3.43506 25.3241C3.41163 26.3585 4.17309 27.2495 5.20399 27.3451L28.2938 30C28.3465 30 28.4461 30 28.493 30C29.4946 30 30.3908 29.2346 30.4903 28.266L31.9898 11.8883C32.0425 11.3801 31.8902 10.818 31.5388 10.4114ZM3.00161 8.56972H27.9951V11.6312H3.00161V8.56972ZM3.99737 6.02248H26.9876C27.5382 6.02248 27.9892 6.4829 27.9892 7.04497V7.55322H3.00161V7.04497C3.00161 6.47692 3.44677 6.02248 3.99737 6.02248ZM3.00161 23.3688V12.6537H27.9951V23.3688C27.9951 23.9309 27.5441 24.3913 26.9935 24.3913H3.99737C3.44677 24.3913 3.00161 23.9309 3.00161 23.3688ZM30.9882 11.685L29.4887 28.0627C29.436 28.6247 28.9381 29.0313 28.3875 28.9835L5.35043 26.3286C4.85255 26.2748 4.5011 25.8682 4.44839 25.4078H26.9935C28.0947 25.4078 28.9908 24.487 28.9908 23.3688V10.4592L30.1389 10.5609C30.3908 10.5609 30.6368 10.7163 30.7891 10.9196C30.9414 11.1229 31.0409 11.4279 30.9882 11.685Z" fill="#0095D9"/>
</svg>
